<?xml version="1.0" encoding="utf-8"?><svg xmlns="http://www.w3.org/2000/svg" xmlns:xlink="http://www.w3.org/1999/xlink"><symbol viewBox="0 0 296 181" id="1anyoasistencia" xmlns="http://www.w3.org/2000/svg"><path d="M138.095 113.762H76.19V9H14.286C6.41 9 0 15.409 0 23.285v114.286c0 7.876 6.41 14.286 14.286 14.286h28.571c0 14.129 10.319 25.862 23.81 28.143l228.571.429v-9.524h-35.905c4.543-5.062 7.333-11.724 7.333-19.048h28.571v-38.095H138.095zm-93.571 28.571H14.286a4.763 4.763 0 0 1-4.762-4.762v-14.286h19.048v-14.286h-9.524v4.762H9.524V23.285a4.763 4.763 0 0 1 4.762-4.762h52.381v105.19c-10.3 1.744-18.724 8.991-22.143 18.62zm26.905 28.572c-10.505 0-19.048-8.543-19.048-19.048 0-10.505 8.543-19.048 19.048-19.048 10.505 0 19.048 8.543 19.048 19.048 0 10.505-8.543 19.048-19.048 19.048zm21.238 0c4.543-5.062 7.333-11.724 7.333-19.048h42.857c0 7.324 2.79 13.986 7.333 19.048H92.667zm78.762 0c-10.505-.001-19.048-8.543-19.048-19.048 0-10.505 8.543-19.048 19.048-19.048 10.505 0 19.048 8.543 19.048 19.048 0 10.505-8.543 19.048-19.048 19.048zm21.238 0c4.543-5.062 7.333-11.724 7.333-19.048h9.524c0 7.324 2.79 13.986 7.333 19.048h-24.19zm45.429 0c-10.506-.001-19.048-8.543-19.048-19.048 0-10.505 8.543-19.048 19.048-19.048 10.505 0 19.048 8.543 19.048 19.048 0 10.505-8.543 19.048-19.048 19.048zm47.618-47.62v19.048H265c-3.933-11.081-14.49-19.048-26.905-19.048-12.414 0-22.971 7.967-26.905 19.048h-12.857c-3.933-11.081-14.49-19.048-26.905-19.048-12.414 0-22.971 7.967-26.905 19.048h-46.19c-3.419-9.629-11.843-16.876-22.143-18.619v-.429h209.524zM19 85.381V33h38.095v52.381H19zm9.523-42.857v33.333h19.048V42.524H28.523zM48 90h9.524v9.524H48V90zm223.235 5.238h14.767c6.486 0 9.238-5.486 9.524-9.524V52.381c-.002-7.214-6.721-12.876-13.092-14.148l-14.314-4.757c-1.348-.338-2.776-2.31-4.29-4.405-.886-1.219-1.795-2.467-2.59-3.357L246.896 6.59C241.744 0 234.601 0 228.858 0h-61.905c-5.743 0-12.886 0-18.095 6.667l-14.072 18.776c-2.876 3.305-9.276 7.51-11.624 7.981l-23.476 4.69C94.029 38.504 86 42.528 86 52.381v33.333c0 3.886 1.643 6.148 3.019 7.362 2.133 1.871 4.643 2.186 6.071 2.186.248 0 .462-.01.638-.024h19.324c2.214 10.857 11.833 19.048 23.329 19.048s21.114-8.19 23.329-19.048h62.867c2.214 10.857 11.833 19.048 23.329 19.048 11.495 0 21.114-9.524 23.329-19.048zm-132.854 9.524c-7.876 0-14.286-6.414-14.286-14.29 0-7.871 6.41-14.281 14.286-14.281 7.876 0 14.286 6.41 14.286 14.281 0 7.875-6.41 14.29-14.286 14.29zm109.524 0c-7.876 0-14.286-6.414-14.286-14.29 0-7.871 6.41-14.281 14.286-14.281 7.876 0 14.286 6.41 14.286 14.281 0 7.875-6.41 14.29-14.286 14.29zm0-38.096c-11.5 0-21.119 8.19-23.329 19.048h-62.867c-2.21-10.857-11.829-19.048-23.329-19.048s-21.119 8.19-23.329 19.048H95.524V66.667h9.524v-9.524h-9.524v-4.762c0-3.89 3.124-4.657 4.933-4.767l24.567-4.852c5.49-1.09 13.576-7.186 17.162-11.338l14.229-18.971c2.09-2.662 4.681-2.929 10.538-2.929h61.905c5.857 0 8.448.267 10.476 2.857l14.5 19.319c.824.948 1.557 1.971 2.281 2.967 2.329 3.219 4.971 6.862 9.329 7.948l14.286 4.762.705.176c2.705.462 5.567 2.943 5.567 4.829l.014 32.986c-.001.003-.087.299-.044.346l-14.738-.005c-2.214-10.852-11.833-19.043-23.329-19.043zM168.671 14L142 47.333h110.581L224.695 14h-56.024zm21.333 23.809h-28.186l11.424-14.286h16.762v14.286zm9.524 0V23.523h20.719l11.948 14.286h-32.667zM31 171h9.549v9.2H31V171zm-20 0h9.549v9.2H11V171z"/></symbol><symbol viewBox="0 0 271 232" id="24mesesgarantia" xmlns="http://www.w3.org/2000/svg"><path d="M152.538 159.617c-12.22-9.334-20.106-24.06-20.106-40.628 0-28.211 22.868-51.075 51.064-51.075 28.24 0 51.098 22.85 51.098 51.075 0 15.77-7.135 29.866-18.358 39.235l.001.108v23.24c.153-.012.307-.018.462-.018h14.074c15.606 0 28.412-12.838 28.412-28.49V40.355c0-15.669-12.8-28.501-28.412-28.501H40.125c-15.63 0-28.44 12.833-28.44 28.501v112.71c0 15.654 12.814 28.49 28.44 28.49h112.413v-21.938zm11.25 6.514v48.71l17.11-11.972a5.625 5.625 0 0 1 6.406-.03l17.683 12.125v-49.607a50.95 50.95 0 0 1-21.49 4.72 50.876 50.876 0 0 1-19.71-3.946zm-11.25 26.673H40.125c-21.843 0-39.69-17.876-39.69-39.74V40.355C.435 18.478 18.278.604 40.125.604h190.648c21.831 0 39.662 17.876 39.662 39.751v112.71c0 21.858-17.836 39.74-39.662 39.74h-14.074c-.155 0-.31-.007-.462-.02v32.857c0 4.526-5.073 7.199-8.806 4.64l-23.276-15.962-22.767 15.93c-3.729 2.61-8.85-.058-8.85-4.608v-32.838zm70.806-73.815c0-22.01-17.82-39.825-39.848-39.825-21.983 0-39.814 17.828-39.814 39.825 0 22.002 17.835 39.837 39.814 39.837 22.025 0 39.848-17.823 39.848-39.837zM56.761 51.191a5.625 5.625 0 0 1 0-11.25h159.096a5.625 5.625 0 1 1 0 11.25H56.761zm0 45.456a5.625 5.625 0 1 1 0-11.25h48.078a5.625 5.625 0 1 1 0 11.25H56.761zm0 49.827a5.625 5.625 0 1 1 0-11.25h48.078a5.625 5.625 0 1 1 0 11.25H56.761z"/></symbol><symbol viewBox="0 0 64 64" id="accelaration" xmlns="http://www.w3.org/2000/svg"><defs><style>.accls-1{fill:#959290}</style></defs><title>accelaration</title><path class="accls-1" d="M32 64a26 26 0 0 1-16.47-46.1l-3.19-4.79a2 2 0 1 1 3.33-2.22l3.14 4.71a25.85 25.85 0 0 1 6.8-2.81 8 8 0 1 1 12.8 0A26 26 0 0 1 32 64zm0-48a22 22 0 1 0 22 22 22 22 0 0 0-22-22zm0-10a2 2 0 0 1 2 2v3.46a4 4 0 1 0-4 0V8a2 2 0 0 1 2-2zm0 40a8 8 0 1 1 4.06-14.89l4.52-4.52a2 2 0 0 1 2.83 2.83l-4.52 4.52A8 8 0 0 1 32 46zm0-12a4 4 0 1 0 3.86 3l-2.45 2.45a2 2 0 0 1-2.83-2.83L33 34.14a4 4 0 0 0-1-.14z" id="acCapa_3" data-name="Capa 3"/></symbol><symbol viewBox="0 0 64 64" id="acceleration" xmlns="http://www.w3.org/2000/svg"><title>acceleration</title><g fill-rule="evenodd"><path d="M32 64c14.36 0 26-11.64 26-26S46.36 12 32 12 6 23.64 6 38s11.64 26 26 26zm0-4c-12.15 0-22-9.85-22-22s9.85-22 22-22 22 9.85 22 22-9.85 22-22 22z"/><path d="M32 45.5a7.5 7.5 0 1 0 0-15 7.5 7.5 0 0 0 0 15zm0-3a4.5 4.5 0 1 1 0-9 4.5 4.5 0 0 1 0 9z"/><path d="M33.06 39.06l10-10a1.5 1.5 0 0 0-2.12-2.12l-10 10a1.5 1.5 0 0 0 2.12 2.12zM12.336 13.11l4 6a2 2 0 1 0 3.328-2.22l-4-6a2 2 0 0 0-3.328 2.22zM34 14V8a2 2 0 1 0-4 0v6a2 2 0 1 0 4 0z"/><path d="M32 16a8 8 0 1 0 0-16 8 8 0 0 0 0 16zm0-4a4 4 0 1 1 0-8 4 4 0 0 1 0 8z"/></g></symbol><symbol viewBox="0 0 64 64" id="ad-insert" xmlns="http://www.w3.org/2000/svg"><defs><style>.aecls-1{fill:#959290}</style></defs><title>ad-insert</title><path class="aecls-1" d="M56 64H0V8h34a2 2 0 0 1 0 4H4v48h48V30a2 2 0 0 1 4 0zM16.84 50.16A3 3 0 0 1 14.06 46l6.07-14.74v-.08l.13-.33.28-.28L49.05 2.12a7 7 0 0 1 9.9 0l2.93 2.93a7 7 0 0 1 0 9.9L33.13 43.7l-.33.13h-.08L18 49.94a3 3 0 0 1-1.16.22zm-.38-3.93zm3.82-4.79l2.28 2.28 5.91-2.43-5.76-5.76zM29.83 37L32 39.17 56.17 15 54 12.83zm-5-5L27 34.17 51.17 10 49 7.83zM55.41 8.59L59 12.17l.05-.05a3 3 0 0 0 0-4.24l-2.93-2.93a3 3 0 0 0-4.24 0l-.05.05z" id="aeCapa_4" data-name="Capa 4"/></symbol><symbol id="alert" viewBox="0 0 64 64" xmlns="http://www.w3.org/2000/svg"><defs><style>.afcls-1{fill:#959290}</style></defs><title>alert</title><path class="afcls-1" d="M56.62 64H7.38A6 6 0 0 1 2 55.38L26.6 4.56a6 6 0 0 1 10.8 0L62 55.38A6 6 0 0 1 56.62 64zM32 5.18a2 2 0 0 0-1.8 1.12L5.58 57.13A2 2 0 0 0 7.38 60h49.24a2 2 0 0 0 1.8-2.87L33.8 6.3A2 2 0 0 0 32 5.18zM32 54a4 4 0 1 1 4-4 4 4 0 0 1-4 4zm0-12a2 2 0 0 1-2-2V18a2 2 0 0 1 4 0v22a2 2 0 0 1-2 2z"/></symbol><symbol id="arrow-down" viewBox="0 0 64 64" xmlns="http://www.w3.org/2000/svg"><defs><style>.agcls-1{fill:#959290}</style></defs><title>arrow-down</title><path class="agcls-1" d="M32 48.83L2.59 19.41a2 2 0 0 1 2.83-2.83L32 43.17l26.59-26.58a2 2 0 0 1 2.83 2.83z"/></symbol><symbol id="arrow-left" viewBox="0 0 64 64" xmlns="http://www.w3.org/2000/svg"><defs><style>.ahcls-1{fill:#959290}</style></defs><title>arrow-left</title><path class="ahcls-1" d="M46 62a2 2 0 0 1-1.41-.59L15.17 32 44.59 2.59a2 2 0 0 1 2.83 2.83L20.83 32l26.58 26.59A2 2 0 0 1 46 62z"/></symbol><symbol id="arrow-right" viewBox="0 0 64 64" xmlns="http://www.w3.org/2000/svg"><defs><style>.aicls-1{fill:#959290}</style></defs><title>arrow-right</title><path class="aicls-1" d="M18 62a2 2 0 0 1-1.41-3.41L43.17 32 16.59 5.41a2 2 0 0 1 2.83-2.83L48.83 32 19.41 61.41A2 2 0 0 1 18 62z"/></symbol><symbol id="arrow-up" viewBox="0 0 64 64" xmlns="http://www.w3.org/2000/svg"><defs><style>.ajcls-1{fill:#959290}</style></defs><title>arrow-up</title><path class="ajcls-1" d="M60 48a2 2 0 0 1-1.41-.59L32 20.83 5.41 47.41a2 2 0 0 1-2.83-2.83L32 15.17l29.41 29.42A2 2 0 0 1 60 48z"/></symbol><symbol viewBox="0 0 64 64" id="bell" xmlns="http://www.w3.org/2000/svg"><defs><style>.akcls-1{fill:#959290}</style></defs><title>bell</title><path class="akcls-1" d="M24.42 62.6a4 4 0 0 1-4-4v-.4l.15-.37c.12-.3 2.92-7.48-2.39-12.8L7.56 34.43A19 19 0 0 1 34.43 7.57l4.2 4.2 6.37 6.4c5.2 5.2 13.56 1.41 13.65 1.37l.34-.16h.37a4 4 0 0 1 3.09 6.82l-9 9a12 12 0 0 1-16.87 16.88l-9.34 9.34a4 4 0 0 1-2.82 1.18zM21 6a15 15 0 0 0-10.61 25.61L21 42.21c6 6 4.4 13.58 3.59 16.21l34.88-34.88c-2.76 1-11.23 3.5-17.26-2.54l-6.41-6.41-4.2-4.2A14.9 14.9 0 0 0 21 6zm18.43 43.24A8 8 0 0 0 50.65 38zM26.66 15.93a2 2 0 0 1-1.41-.59 6 6 0 0 0-8.49 0 2 2 0 1 1-2.83-2.83 10 10 0 0 1 14.14 0 2 2 0 0 1-1.41 3.41z" id="akCapa_4" data-name="Capa 4"/></symbol><symbol id="calculator" viewBox="0 0 29 42" xmlns="http://www.w3.org/2000/svg"><style>.alst0{fill:#27ae60}</style><title>Financiacion</title><g id="alCertified-cars"><g transform="translate(-718 -823)" id="alDesktop-AD-detail---Full-icons"><g id="alCard-Title" transform="translate(97 689)"><g id="alFinanciacion"><path class="alst0" d="M78.8 42.1h-21c-2.1 0-3.9-1.7-3.9-3.8V3.9c.1-2.2 1.8-3.9 4-3.9h21c2.1 0 3.8 1.7 3.8 3.9v34.4c0 2-1.7 3.8-3.9 3.8zM57.9 1.7c-1.2 0-2.1 1-2.1 2.1v34.4c0 1.2 1 2.2 2.1 2.2h21c1.2 0 2.2-1 2.2-2.2V3.9c0-1.2-1-2.1-2.2-2.1h-21z" transform="translate(567 134)"/><path class="alst0" d="M76.2 11.7H60.9c-1.6 0-2.9-1.3-2.9-2.9C58 7.3 59.3 6 60.9 6h15.3C77.7 6 79 7.3 79 8.9c0 1.5-1.3 2.8-2.8 2.8zm-15.3-4c-.6 0-1.2.5-1.2 1.2s.5 1.2 1.2 1.2h15.3c.6 0 1.2-.5 1.2-1.2s-.5-1.2-1.2-1.2H60.9zm0 15c-1.6 0-2.9-1.3-2.9-2.9 0-1.6 1.3-2.9 2.9-2.9 1.6 0 2.9 1.3 2.9 2.9-.1 1.6-1.4 2.9-2.9 2.9zm0-4c-.6 0-1.2.5-1.2 1.2s.5 1.2 1.2 1.2 1.2-.5 1.2-1.2-.6-1.2-1.2-1.2zm0 12c-1.6 0-2.9-1.3-2.9-2.9 0-1.6 1.3-2.9 2.9-2.9 1.6 0 2.9 1.3 2.9 2.9-.1 1.6-1.4 2.9-2.9 2.9zm0-4c-.6 0-1.2.5-1.2 1.2 0 .6.5 1.2 1.2 1.2s1.2-.5 1.2-1.2c-.1-.7-.6-1.2-1.2-1.2zm8-4c-1.6 0-2.9-1.3-2.9-2.9 0-1.6 1.3-2.9 2.9-2.9 1.6 0 2.9 1.3 2.9 2.9-.1 1.6-1.4 2.9-2.9 2.9zm0-4c-.6 0-1.2.5-1.2 1.2s.5 1.2 1.2 1.2 1.2-.5 1.2-1.2-.6-1.2-1.2-1.2zm0 12c-1.6 0-2.9-1.3-2.9-2.9 0-1.6 1.3-2.9 2.9-2.9 1.6 0 2.9 1.3 2.9 2.9-.1 1.6-1.4 2.9-2.9 2.9zm0-4c-.6 0-1.2.5-1.2 1.2 0 .6.5 1.2 1.2 1.2s1.2-.5 1.2-1.2c-.1-.7-.6-1.2-1.2-1.2zm0 11c-1.6 0-2.9-1.3-2.9-2.9 0-1.6 1.3-2.9 2.9-2.9 1.6 0 2.9 1.3 2.9 2.9-.1 1.6-1.4 2.9-2.9 2.9zm0-4c-.6 0-1.2.5-1.2 1.2 0 .6.5 1.2 1.2 1.2s1.2-.5 1.2-1.2c-.1-.7-.6-1.2-1.2-1.2zm-8 4c-1.6 0-2.9-1.3-2.9-2.9 0-1.6 1.3-2.9 2.9-2.9 1.6 0 2.9 1.3 2.9 2.9-.1 1.6-1.4 2.9-2.9 2.9zm0-4c-.6 0-1.2.5-1.2 1.2 0 .6.5 1.2 1.2 1.2s1.2-.5 1.2-1.2c-.1-.7-.6-1.2-1.2-1.2zm15-11c-1.6 0-2.9-1.3-2.9-2.9 0-1.6 1.3-2.9 2.9-2.9 1.6 0 2.9 1.3 2.9 2.9-.1 1.6-1.4 2.9-2.9 2.9zm0-4c-.6 0-1.2.5-1.2 1.2s.5 1.2 1.2 1.2c.6 0 1.2-.5 1.2-1.2s-.6-1.2-1.2-1.2zm0 19.7c-1.6 0-2.9-1.3-2.9-2.9v-7.6c0-1.6 1.3-2.9 2.9-2.9 1.6 0 2.9 1.3 2.9 2.9v7.6c-.1 1.6-1.4 2.9-2.9 2.9zm0-11.7c-.6 0-1.2.5-1.2 1.2v7.6c0 .6.5 1.2 1.2 1.2.6 0 1.2-.5 1.2-1.2v-7.6c-.1-.7-.6-1.2-1.2-1.2z" transform="translate(567 134)"/></g></g></g></g></symbol><symbol id="calculator-fill" viewBox="0 0 15 22" xmlns="http://www.w3.org/2000/svg"><style>.amst0{fill:#27ae60}</style><title>Financiado</title><path class="amst0" d="M12 0H3C1.3 0 0 1.3 0 3v16c0 1.7 1.3 3 3 3h9c1.7 0 3-1.3 3-3V3c0-1.7-1.3-3-3-3zM3.5 20c-.8 0-1.5-.7-1.5-1.5S2.7 17 3.5 17s1.5.7 1.5 1.5S4.3 20 3.5 20zm0-4c-.8 0-1.5-.7-1.5-1.5S2.7 13 3.5 13s1.5.7 1.5 1.5S4.3 16 3.5 16zm0-4c-.8 0-1.5-.7-1.5-1.5S2.7 9 3.5 9 5 9.7 5 10.5 4.3 12 3.5 12zm4 8c-.8 0-1.5-.7-1.5-1.5S6.7 17 7.5 17s1.5.7 1.5 1.5S8.3 20 7.5 20zm0-4c-.8 0-1.5-.7-1.5-1.5S6.7 13 7.5 13s1.5.7 1.5 1.5S8.3 16 7.5 16zm0-4c-.8 0-1.5-.7-1.5-1.5S6.7 9 7.5 9 9 9.7 9 10.5 8.3 12 7.5 12zm5.5 6.5c0 .8-.7 1.5-1.5 1.5s-1.5-.7-1.5-1.5v-4c0-.8.7-1.5 1.5-1.5s1.5.7 1.5 1.5v4zM11.5 12c-.8 0-1.5-.7-1.5-1.5S10.7 9 11.5 9s1.5.7 1.5 1.5-.7 1.5-1.5 1.5zm0-6h-8C2.7 6 2 5.3 2 4.5S2.7 3 3.5 3h8c.8 0 1.5.7 1.5 1.5S12.3 6 11.5 6z"/></symbol><symbol id="calendar" viewBox="0 0 512 512" xmlns="http://www.w3.org/2000/svg"><style>.anst0{fill:#444}</style><path class="anst0" d="M480 48.9H351.9V17c0-8.8-7.2-16-16-16s-16 7.2-16 16v31.9h-128V17c0-8.8-7.2-16-16-16s-16 7.2-16 16v31.9H32c-17.7 0-32 14.3-32 32V481c0 17.7 14.3 32 32 32h448c17.7 0 32-14.3 32-32V80.9c0-17.7-14.4-32-32-32zm0 432.1H31.9V80.9h127.9V97c0 8.8 7.2 16 16 16s16-7.2 16-16V80.9h128V97c0 8.8 7.2 16 16 16s16-7.2 16-16V80.9H480V481zM367.9 257h32c8.8 0 16-7.2 16-16v-32c0-8.8-7.2-16-16-16h-32c-8.8 0-16 7.2-16 16v32c0 8.8 7.2 16 16 16zm0 128h32c8.8 0 16-7.2 16-16v-32c0-8.8-7.2-16-16-16h-32c-8.8 0-16 7.2-16 16v32c0 8.8 7.2 16 16 16zm-96-64h-32c-8.8 0-16 7.2-16 16v32c0 8.8 7.2 16 16 16h32c8.8 0 16-7.2 16-16v-32c0-8.9-7.2-16-16-16zm0-128h-32c-8.8 0-16 7.2-16 16v32c0 8.8 7.2 16 16 16h32c8.8 0 16-7.2 16-16v-32c0-8.9-7.2-16-16-16zm-128 0h-32c-8.8 0-16 7.2-16 16v32c0 8.8 7.2 16 16 16h32c8.8 0 16-7.2 16-16v-32c0-8.9-7.2-16-16-16zm0 128h-32c-8.8 0-16 7.2-16 16v32c0 8.8 7.2 16 16 16h32c8.8 0 16-7.2 16-16v-32c0-8.9-7.2-16-16-16z"/></symbol><symbol viewBox="0 0 296 172" id="cambio30dias" xmlns="http://www.w3.org/2000/svg"><path d="M68.54 42.402l.001-.004 20.132-28.349C95.876 3.967 108.593-.738 117.864.093h92.2c9.467 0 22.314 5.305 28.14 16.966l14.184 28.375c8.436 12.381 25.508 16.837 25.68 16.88l.97.358C289.501 67.905 296 78.692 296 90.822v38.201c0 6.533-4.371 14.326-16.207 14.326h-17.595a33.326 33.326 0 0 1-9.697 19.1H296V172H186.193v-9.55h19.626a33.357 33.357 0 0 1-9.696-19.102H99.876a33.35 33.35 0 0 1-9.696 19.101h67.368V172h-90.71c-16.8 0-30.706-12.482-33.036-28.651H19.097C8.747 143.349 0 134.601 0 124.248V90.82c0-14.226 9.205-25.7 22.897-28.551l28.836-4.809c3.943-.792 7.214-3.036 11.5-7.974l5.307-7.085zm8.604 4.03L70.66 55.48c-5.896 6.8-10.972 10.118-17.207 11.37l-28.798 4.803C17.45 73.158 9.55 79.007 9.55 90.82v33.427c0 5.086 4.464 9.55 9.548 9.55h14.706c2.329-16.168 16.237-28.65 33.037-28.65s30.707 12.481 33.037 28.65h96.247c2.33-16.168 16.237-28.65 33.037-28.65s30.707 12.481 33.037 28.65h19.48c4.1 0 4.773-.674 4.773-4.775V90.821c0-8.328-4.307-15.715-11.277-19.397-3.475-.968-21.278-6.518-31.19-21.446l-14.323-28.65c-3.828-7.669-12.756-11.685-19.598-11.685h-92.917l-.002.01c-9.923.094-15.72 2.973-20.702 9.948L77.814 45.658l-.377.458c-.098.107-.196.212-.293.315zM66.84 162.448c13.162 0 23.871-10.712 23.871-23.876 0-13.166-10.708-23.877-23.871-23.877-13.163 0-23.872 10.71-23.872 23.877 0 13.165 10.709 23.876 23.872 23.876zm162.322 0c13.163 0 23.872-10.71 23.872-23.876s-10.709-23.877-23.872-23.877-23.871 10.71-23.871 23.877c0 13.164 10.708 23.876 23.871 23.876zm0-38.201c-7.897 0-14.324 6.428-14.324 14.326 0 7.898 6.427 14.326 14.323 14.326 7.896 0 14.323-6.428 14.323-14.326 0-7.898-6.426-14.326-14.323-14.326zm0 19.101a4.776 4.776 0 0 1 0-9.55 4.776 4.776 0 0 1 0 9.55zm-162.324-19.1c-7.896 0-14.323 6.428-14.323 14.326 0 7.898 6.427 14.326 14.323 14.326 7.896 0 14.323-6.428 14.323-14.326-.001-7.898-6.427-14.326-14.323-14.326zm0 19.101a4.776 4.776 0 0 1 0-9.55 4.776 4.776 0 0 1 0 9.55zm100.258 19.1h9.548V172h-9.548v-9.55zm-143.226 0h9.549V172H23.87v-9.55zm-19.097 0h9.549V172H4.774v-9.55zm210.304-96.412c0 13.167-10.709 23.877-23.871 23.877H145.44l10.947 10.95-6.75 6.751-22.472-22.476 22.472-22.477 6.75 6.752-10.947 10.95h45.766c7.896 0 14.322-6.429 14.322-14.327v-4.775c0-7.898-6.426-14.326-14.322-14.326h-62.065c-7.896 0-14.323 6.428-14.323 14.326h-9.548c0-13.166 10.708-23.877 23.871-23.877h62.065c13.162 0 23.871 10.711 23.871 23.877v4.775z"/></symbol><symbol viewBox="0 0 64 64" id="camera" xmlns="http://www.w3.org/2000/svg"><defs><style>.apcls-1{fill:none;stroke:#959290;stroke-linecap:round;stroke-miterlimit:10;stroke-width:4px}</style></defs><title>camera</title><path class="apcls-1" d="M58 56H6a4 4 0 0 1-4-4V20a4 4 0 0 1 4-4h10l4.54-7.08A2 2 0 0 1 22.23 8H41a2 2 0 0 1 1.6.8L48 16h10a4 4 0 0 1 4 4v32a4 4 0 0 1-4 4zM32 22a12 12 0 1 0 12 12 12 12 0 0 0-12-12zm18 2h4" id="apCapa_4" data-name="Capa 4"/></symbol><symbol id="car" viewBox="0 0 64 64" xmlns="http://www.w3.org/2000/svg"><defs><style>.aqcls-1{fill:#959290}</style></defs><title>car</title><path class="aqcls-1" d="M55 62h-6a4 4 0 0 1-4-4v-6H20v6a4 4 0 0 1-4 4h-6a4 4 0 0 1-4-4v-6a6 6 0 0 1-6-6V34a10 10 0 0 1 10-10h.33l3.1-17.07A6 6 0 0 1 19.34 2h25.32a6 6 0 0 1 5.9 4.93L53.67 24H54a10 10 0 0 1 10 10v12a6 6 0 0 1-5 5.92V58a4 4 0 0 1-4 4zm-6-10v6h6v-6zm-39 0v6h6v-6zm47-4h1a2 2 0 0 0 2-2V34a6 6 0 0 0-6-6H10a6 6 0 0 0-6 6v12a2 2 0 0 0 2 2zm-9.25-24h1.85l-3-16.36a2 2 0 0 0-2-1.64H19.34a2 2 0 0 0-2 1.64L14.4 24h17.85a8 8 0 0 1 15.49 0zm-11.21 0h6.93a4 4 0 0 0-6.93 0zM50 44a6 6 0 1 1 6-6 6 6 0 0 1-6 6zm0-8a2 2 0 1 0 2 2 2 2 0 0 0-2-2zm-36 8a6 6 0 1 1 6-6 6 6 0 0 1-6 6zm0-8a2 2 0 1 0 2 2 2 2 0 0 0-2-2zm24 4H26a2 2 0 0 1 0-4h12a2 2 0 0 1 0 4z"/></symbol><symbol id="car-size" viewBox="0 0 64 64" xmlns="http://www.w3.org/2000/svg"><defs><style>.arcls-1{fill:#959290}</style></defs><title>car-size</title><path class="arcls-1" d="M62 64a2 2 0 0 1-2-2v-4h-4v3a2 2 0 0 1-4 0v-3h-4v3a2 2 0 0 1-4 0v-3h-4v3a2 2 0 0 1-4 0v-3h-4v3a2 2 0 0 1-4 0v-3h-4v3a2 2 0 0 1-4 0v-3h-4v4a2 2 0 0 1-4 0v-8h52v8a2 2 0 0 1-2 2zM10 52H2a2 2 0 0 1 0-4h4v-4H3a2 2 0 0 1 0-4h3v-4H3a2 2 0 0 1 0-4h3v-4H3a2 2 0 0 1 0-4h3v-4H3a2 2 0 0 1 0-4h3v-4H3a2 2 0 0 1 0-4h3V4H2a2 2 0 0 1 0-4h8zm45-2h-6a4 4 0 0 1-4-4v-4H32v4a4 4 0 0 1-4 4h-6a4 4 0 0 1-4-4v-4h-2a4 4 0 0 1-4-4V28a8 8 0 0 1 8-8h.4l3.3-14.87A4 4 0 0 1 27.6 2h20.8a4 4 0 0 1 3.9 3.13L55.6 20h.4a8 8 0 0 1 8 8v10a4 4 0 0 1-4 4h-1v4a4 4 0 0 1-4 4zm-6-8v4h6v-4zm-27 0v4h6v-4zm35-4h3V28a4 4 0 0 0-4-4H20a4 4 0 0 0-4 4v10zm-7.25-18h1.76L48.4 6H27.6l-3.11 14h9.76a8 8 0 0 1 15.49 0zm-11.21 0h6.93a4 4 0 0 0-6.93 0zM53 34a3 3 0 1 1 3-3 3 3 0 0 1-3 3zm-9 0H32a2 2 0 0 1 0-4h12a2 2 0 0 1 0 4zm-21 0a3 3 0 1 1 3-3 3 3 0 0 1-3 3z"/></symbol><symbol viewBox="0 0 64 64" id="car-weight" xmlns="http://www.w3.org/2000/svg"><defs><style>.ascls-1{fill:#959290}</style></defs><title>car-weight</title><path class="ascls-1" d="M54.75 64H9.25a8 8 0 0 1-7.86-9.5l6-31.63A6 6 0 0 1 13.31 18h2.82A16 16 0 1 1 48 16a16.29 16.29 0 0 1-.12 2h2.8a6 6 0 0 1 5.89 4.88l6 31.63A8 8 0 0 1 54.75 64zM13.31 22a2 2 0 0 0-2 1.63l-6 31.63A4 4 0 0 0 9.25 60h45.5a4 4 0 0 0 3.93-4.75l-6-31.63a2 2 0 0 0-2-1.63H13.31zm26.43-4h4.1a12.18 12.18 0 0 0 .16-2 12 12 0 0 0-24 0 11.89 11.89 0 0 0 .17 2h4.08a7.93 7.93 0 0 1-.25-2 8 8 0 0 1 16 0 7.93 7.93 0 0 1-.26 2zm-11.2 0h6.91a4 4 0 0 0 .55-2 4 4 0 0 0-8 0 4 4 0 0 0 .54 2zM38 48a6 6 0 0 1-6-6v-2a6 6 0 0 1 6-6h1a2 2 0 0 1 0 4h-1a2 2 0 0 0-2 2v2a2 2 0 0 0 3.73 1H38a2 2 0 0 1 0-4h6v3a6 6 0 0 1-6 6zm-16 0a2 2 0 0 1-2-2V36a2 2 0 0 1 4 0v2.59l4.68-4.1a2 2 0 1 1 2.63 3l-3.62 3.17 3.76 3.94a2 2 0 1 1-2.9 2.76l-3.87-4.07-.68.6V46a2 2 0 0 1-2 2z" id="asCapa_3" data-name="Capa 3"/></symbol><symbol viewBox="0 0 380 91" id="carfax" xmlns="http://www.w3.org/2000/svg"><g fill-rule="evenodd"><path d="M3.517 64.485V7.446c0-2.169 1.823-3.933 4.064-3.933h351.4c2.242 0 4.065 1.764 4.065 3.933v57.039c0 2.168-1.823 3.932-4.065 3.932H7.581c-2.241 0-4.064-1.764-4.064-3.932zM7.581.48C3.667.48.483 3.605.483 7.446v57.039c0 3.841 3.184 6.965 7.098 6.965h351.4c3.915 0 7.098-3.124 7.098-6.965V7.446c0-3.841-3.183-6.966-7.098-6.966H7.581z"/><path d="M358.611 7.796v56.182h-53.642V7.796h53.642zm-55.166 57.706V6.273h56.69v59.229h-56.69zm32.975-1.535h13.696L338.24 47.02l13.673-19.238h-13.61l-2.414 3.824c-1.546 2.475-3.218 5.119-4.207 7.201-.928-2.082-2.6-4.726-4.145-7.201l-2.414-3.824h-13.922l13.675 19.462-12.073 16.724 13.42.023 1.003-1.391c1.609-2.475 3.218-5.176 4.208-7.256 1.051 2.137 2.598 4.781 4.145 7.256l.84 1.367zm-269.583.852V7.113h55.172v57.706H66.837zm47.69-9.131l-14.362-39.573h-11.08L74.728 55.688h11.755l2.149-7.002h11.873l2.148 7.002h11.874zM97.849 40.011h-6.557l.734-2.597c1.414-5.029 2.039-7.225 2.547-9.883.507 2.658 1.128 4.798 2.543 9.883l.733 2.597zm28.138 24.808V7.113h55.171v57.706h-55.171zm44.836-8.942l-7.919-15.104c4.351-1.973 7.125-5.638 7.125-11.575 0-9.386-6.164-12.892-15.442-12.892h-17.699v39.571h10.795V42.516h4.414l6.453 13.361h12.273zm-11.707-26.393c0 2.832-1.414 4.414-4.981 4.414h-6.452v-8.665h6.619c3.453 0 4.814 1.763 4.814 4.251zm26.407 35.335V7.113h55.165v57.706h-55.165zm22.812-39.197h20.405v-9.316h-31.319v39.571h10.914V40.402h12.375v-9.26h-12.375v-5.52zm36.726 39.197V7.113h55.169v57.706h-55.169zM292.202 56l-14.36-39.568H266.76L252.399 56h11.761l2.149-6.998h11.872L280.329 56h11.873zm-16.678-15.676h-6.557l.735-2.596c1.413-5.026 2.033-7.229 2.541-9.885.513 2.656 1.133 4.796 2.547 9.885l.734 2.596zM7.302 64.819V7.113h55.167v57.706H7.302zm28.887-8.057c9.381 0 13.796-5.028 16.445-10.215l-9.266-4.941c-2.148 3.744-3.621 5.615-7.066 5.615-4.754 0-6.675-4.816-6.675-10.886 0-6.281 1.98-10.876 6.562-10.876 3.617 0 4.971 2.326 6.386 6.015l9.951-3.917C49.812 20.1 45.969 15.92 36.243 15.92c-10.622 0-18.077 7.672-18.077 20.415 0 11.733 6.267 20.427 18.023 20.427zm339.474-52.12c0-.632-.48-.948-1.436-.948H372.4v2.03h1.892c.914 0 1.371-.361 1.371-1.082zm.981.003c0 .584-.206 1.048-.615 1.392a2.112 2.112 0 0 1-1.398.515l1.895 2.525h-1.169l-1.883-2.509H372.4v2.509h-.934v-6.25h3.057c.686 0 1.208.172 1.574.515.364.343.547.778.547 1.303zm1.436 1.375c0-1.222-.426-2.279-1.277-3.174-.852-.895-1.853-1.342-3.002-1.342-1.224 0-2.265.447-3.122 1.342-.86.895-1.288 1.96-1.288 3.196 0 1.237.428 2.295 1.288 3.175.857.879 1.884 1.32 3.078 1.32 1.179 0 2.194-.444 3.046-1.332.851-.887 1.277-1.948 1.277-3.185zm1.035 0c0 1.518-.52 2.813-1.562 3.883-1.041 1.07-2.306 1.606-3.795 1.606-1.49 0-2.763-.532-3.82-1.594-1.056-1.064-1.584-2.354-1.584-3.872 0-1.548.525-2.857 1.573-3.928 1.048-1.07 2.326-1.606 3.83-1.606 1.49 0 2.755.536 3.796 1.606 1.042 1.07 1.562 2.372 1.562 3.905zM22.634 90.692l-5.165-12.493h3.829l3.67 9.461 3.797-9.461h3.5l-5.369 12.493h-4.262zm12.674 0V78.199h10.635v2.661h-7.191v2.161h6.843v2.565h-6.843v2.423h7.386v2.683h-10.83zm14.619-12.493h3.539v4.822h6.246v-4.822h3.539v12.493h-3.539v-5.058h-6.246v5.058h-3.539V78.199zm17.96 12.493V78.199h3.563v12.493h-3.563zm20.739-4.346c-.052 1.495-.595 2.629-1.631 3.4-1.037.773-2.532 1.16-4.486 1.16-2.298 0-4.051-.549-5.257-1.65-1.205-1.1-1.808-2.695-1.808-4.783 0-2.087.618-3.678 1.852-4.774 1.234-1.094 3.029-1.642 5.384-1.642 1.853 0 3.267.354 4.241 1.06.975.708 1.527 1.779 1.657 3.215h-3.562c-.097-.584-.361-1.028-.793-1.33-.433-.301-1.022-.451-1.768-.451-1.154 0-2.009.315-2.565.946-.557.629-.836 1.599-.836 2.911 0 1.321.267 2.313.8 2.97.534.657 1.336.987 2.409.987.858 0 1.511-.164 1.959-.491.449-.328.721-.838.818-1.528h3.586zm3.745 4.346V78.199h3.538v9.762h6.555v2.731H92.371zm13.468 0V78.199h10.635v2.661h-7.191v2.161h6.843v2.565h-6.843v2.423h7.386v2.683h-10.83zm24.707-12.493h3.539v4.822h6.246v-4.822h3.539v12.493h-3.539v-5.058h-6.246v5.058h-3.539V78.199zm17.96 12.493V78.199h3.562v12.493h-3.562zm7.676-4.156h3.538v.126c0 .613.204 1.067.611 1.358.408.294 1.039.441 1.893.441.758 0 1.324-.109 1.697-.326.373-.218.56-.543.56-.977 0-.633-.866-1.102-2.598-1.413l-.806-.143c-1.702-.329-2.898-.769-3.588-1.322-.691-.553-1.036-1.323-1.036-2.305 0-1.277.501-2.254 1.503-2.929 1.002-.675 2.448-1.013 4.338-1.013 1.806 0 3.144.302 4.013.904.869.604 1.34 1.553 1.414 2.849h-3.359v-.034c0-.457-.182-.805-.548-1.039-.365-.234-.906-.352-1.625-.352-.696 0-1.232.102-1.608.307-.377.201-.565.491-.565.864 0 .596.838 1.048 2.513 1.359.294.056.523.101.687.136l.144.025c1.84.356 3.057.792 3.649 1.305.345.299.606.665.787 1.098.181.431.271.904.271 1.418 0 1.295-.521 2.289-1.563 2.986-1.043.698-2.533 1.047-4.47 1.047-1.954 0-3.418-.341-4.392-1.022-.974-.683-1.46-1.711-1.46-3.086v-.262zm19.377 4.156v-9.856h-4.726v-2.637h12.991v2.637h-4.726v9.856h-3.539zm24.112-1.401c-1.317 1.093-3.238 1.639-5.761 1.639-2.342 0-4.143-.561-5.404-1.685-1.262-1.122-1.893-2.729-1.893-4.817 0-2.02.671-3.596 2.011-4.725 1.341-1.129 3.213-1.693 5.616-1.693 2.382 0 4.211.564 5.49 1.693 1.278 1.129 1.917 2.744 1.917 4.844 0 2.071-.659 3.654-1.976 4.744zm-8.424-7.784c-.667.732-1 1.757-1 3.073 0 1.307.321 2.289.963 2.943.64.657 1.599.984 2.875.984 1.3 0 2.274-.321 2.927-.966.652-.645.978-1.609.978-2.894 0-1.377-.337-2.428-1.009-3.154-.671-.722-1.648-1.085-2.93-1.085-1.203 0-2.137.367-2.804 1.099zm17.769 9.185h-3.445V78.199h6.811c1 0 1.759.042 2.278.124.519.081.972.215 1.361.402.509.249.902.597 1.177 1.048.278.452.415.969.415 1.548 0 .865-.283 1.558-.85 2.082-.568.525-1.421.882-2.562 1.074.859.013 1.505.129 1.944.352.436.225.737.587.901 1.089.085.262.204.928.36 2.002.155 1.074.351 1.999.587 2.772h-3.673c-.113-.22-.214-.647-.305-1.28-.011-.08-.02-.141-.025-.186l-.236-1.662c-.103-.679-.296-1.123-.58-1.332-.285-.209-.972-.314-2.06-.314h-2.098v4.774zm2.208-10.069h-2.208v2.897h2.208c1.043 0 1.758-.11 2.148-.333.39-.222.584-.605.584-1.15 0-.527-.181-.894-.541-1.102-.362-.208-1.092-.312-2.191-.312zm13.803 10.069v-4.488l-5.629-8.005h4.173l3.471 5.176 3.306-5.176h3.846l-5.629 8.055v4.438h-3.538zm23.968 0h-3.443V78.199h6.81c.999 0 1.757.042 2.277.124.518.081.973.215 1.363.402.507.249.899.597 1.176 1.048.276.452.415.969.415 1.548 0 .865-.283 1.558-.851 2.082-.568.525-1.422.882-2.56 1.074.856.013 1.505.129 1.941.352.437.225.737.587.901 1.089.085.262.205.928.361 2.002.155 1.074.351 1.999.588 2.772H254.3c-.113-.22-.215-.647-.305-1.28a5.056 5.056 0 0 1-.025-.186l-.238-1.662c-.101-.679-.294-1.123-.579-1.332-.286-.209-.972-.314-2.059-.314h-2.099v4.774zm2.208-10.069h-2.208v2.897h2.208c1.043 0 1.759-.11 2.149-.333.388-.222.584-.605.584-1.15 0-.527-.181-.894-.541-1.102-.362-.208-1.092-.312-2.192-.312zm10.407 10.069V78.199h10.635v2.661h-7.19v2.161h6.842v2.565h-6.842v2.423h7.385v2.683h-10.83zm18.063 0h-3.444V78.199h6.456c.935 0 1.666.049 2.189.145.524.095.98.251 1.362.465.565.322.993.773 1.286 1.353.293.582.44 1.27.44 2.065 0 .794-.149 1.48-.449 2.054a3.046 3.046 0 0 1-1.32 1.321 4.684 4.684 0 0 1-1.45.482c-.555.096-1.451.143-2.686.143h-2.384v4.465zm2.155-10.022h-2.155v3.135h2.155c.988 0 1.67-.118 2.04-.358.37-.238.555-.65.555-1.24 0-.57-.18-.97-.539-1.196-.36-.228-1.044-.341-2.056-.341zm22.081 8.621c-1.317 1.093-3.237 1.639-5.761 1.639-2.341 0-4.143-.561-5.404-1.685-1.262-1.122-1.891-2.729-1.891-4.817 0-2.02.668-3.596 2.009-4.725 1.341-1.129 3.213-1.693 5.617-1.693 2.381 0 4.211.564 5.489 1.693 1.279 1.129 1.918 2.744 1.918 4.844 0 2.071-.658 3.654-1.977 4.744zm-8.424-7.784c-.666.732-1 1.757-1 3.073 0 1.307.321 2.289.962 2.943.642.657 1.599.984 2.876.984 1.299 0 2.275-.321 2.927-.966.652-.645.979-1.609.979-2.894 0-1.377-.336-2.428-1.008-3.154-.672-.722-1.651-1.085-2.932-1.085-1.203 0-2.137.367-2.804 1.099zm17.769 9.185h-3.443V78.199h6.81c.999 0 1.757.042 2.276.124.519.081.973.215 1.363.402.508.249.9.597 1.177 1.048.276.452.415.969.415 1.548 0 .865-.284 1.558-.852 2.082-.567.525-1.421.882-2.561 1.074.858.013 1.505.129 1.943.352.436.225.737.587.901 1.089.085.262.205.928.361 2.002.154 1.074.351 1.999.587 2.772h-3.672c-.114-.22-.215-.647-.305-1.28a3.522 3.522 0 0 1-.025-.186l-.238-1.662c-.101-.679-.294-1.123-.579-1.332-.286-.209-.973-.314-2.059-.314h-2.099v4.774zm2.208-10.069h-2.208v2.897h2.208c1.043 0 1.759-.11 2.148-.333.389-.222.584-.605.584-1.15 0-.527-.181-.894-.541-1.102-.362-.208-1.091-.312-2.191-.312zm14.017 10.069v-9.856h-4.727v-2.637h12.992v2.637h-4.726v9.856h-3.539zm11.173-4.156h3.539v.126c0 .613.204 1.067.612 1.358.407.294 1.038.441 1.892.441.757 0 1.323-.109 1.696-.326a1.06 1.06 0 0 0 .56-.977c0-.633-.865-1.102-2.597-1.413l-.806-.143c-1.703-.329-2.898-.769-3.588-1.322s-1.035-1.323-1.035-2.305c0-1.277.5-2.254 1.502-2.929 1.002-.675 2.447-1.013 4.339-1.013 1.805 0 3.142.302 4.011.904.869.604 1.34 1.553 1.413 2.849h-3.358v-.034c0-.457-.182-.805-.547-1.039-.365-.234-.907-.352-1.625-.352-.696 0-1.233.102-1.609.307-.376.201-.564.491-.564.864 0 .596.837 1.048 2.512 1.359.294.056.523.101.688.136l.143.025c1.841.356 3.057.792 3.649 1.305.344.299.607.665.788 1.098.18.431.271.904.271 1.418 0 1.295-.521 2.289-1.564 2.986-1.042.698-2.532 1.047-4.469 1.047-1.955 0-3.419-.341-4.392-1.022-.973-.683-1.461-1.711-1.461-3.086v-.262z"/></g></symbol><symbol id="certified" viewBox="0 0 38 45" xmlns="http://www.w3.org/2000/svg"><style>.aust0{fill:#27ae60}</style><title>Vehículo certificado</title><g id="auCertified-cars"><g transform="translate(-569 -819)" id="auDesktop-AD-detail---Full-icons"><g id="auCard-Title" transform="translate(97 689)"><g id="auVehículo-certificado"><path class="aust0" d="M85.8 18.6c-.8-.8-1-2-.4-3 .7-1.2.7-2.8.1-4-.6-1.3-1.7-2.3-3.1-2.6-1.1-.2-1.9-1.2-1.9-2.3-.1-1.4-.9-2.7-2-3.5-1.2-.8-2.7-.9-4-.5-1 .4-2.2 0-2.8-.9C70.8.7 69.5 0 68.1 0s-2.7.7-3.6 1.8c-.7.9-1.8 1.2-2.8.9-1.3-.5-2.8-.3-4 .5-1.2.8-1.9 2.1-2 3.5-.1 1.1-.9 2.1-1.9 2.3-1.4.3-2.5 1.3-3.1 2.6-.6 1.3-.5 2.8.1 4 .5 1 .4 2.2-.4 3-1 1-1.4 2.5-1.2 3.8.2 1.4 1 2.7 2.3 3.3 1 .6 1.5 1.7 1.2 2.8-.3 1.4.1 2.8 1 3.9s2.3 1.7 3.7 1.6c1.1-.1 2.1.6 2.5 1.6l.3.6V46l7.7-3.2 7.5 3 .2-8.6c.4-.4.7-.9 1-1.5.4-1.1 1.4-1.7 2.5-1.6 1.4.1 2.8-.5 3.7-1.6.9-1.1 1.3-2.5 1-3.9-.2-1.1.3-2.2 1.2-2.8 1.2-.7 2.1-1.9 2.3-3.3 0-1.5-.5-2.9-1.5-3.9zM67.7 40.7L62 43v-4.8l.6.3c.4.1.8.2 1.3.2 1 0 1.9-.3 2.7-.9.9-.7 2.1-.7 2.9 0 1.1.8 2.6 1.1 3.9.7l-.1 4.5-5.6-2.3zm17.4-18.6c-.1.8-.6 1.5-1.3 1.9-1.7 1-2.6 3-2.2 4.9.2.8-.1 1.6-.6 2.2-.5.6-1.3.9-2 .9-2-.1-3.8 1.1-4.5 2.9-.3.7-.9 1.3-1.6 1.5-.7.2-1.5.1-2.2-.4-1.6-1.2-3.7-1.2-5.3 0-.6.5-1.4.6-2.2.4-.7-.2-1.4-.8-1.6-1.5-.7-1.8-2.3-2.9-4.2-2.9h-.3c-.8 0-1.5-.3-2-.9-.5-.6-.7-1.4-.6-2.2.4-2-.5-3.9-2.2-4.9-.7-.4-1.2-1.1-1.3-1.9-.1-.8.1-1.6.7-2.2 1.4-1.4 1.7-3.6.8-5.4-.4-.7-.4-1.6-.1-2.3.3-.7 1-1.3 1.7-1.4 1.9-.4 3.3-2.1 3.5-4.1.1-.8.5-1.5 1.1-2 .6-.4 1.5-.5 2.2-.3 1.9.7 3.9.1 5.1-1.5.5-.6 1.2-1 2-1s1.5.4 2 1c1.2 1.6 3.3 2.2 5.1 1.5.7-.3 1.5-.2 2.2.3.7.4 1.1 1.2 1.1 2 .2 2 1.6 3.7 3.5 4.1.8.2 1.4.7 1.7 1.4.3.7.3 1.6-.1 2.3-.9 1.8-.6 3.9.8 5.4.7.6.9 1.4.8 2.2z" transform="translate(423 130)"/><path class="aust0" d="M59.3 18.7c.4-.6 1.2-.7 1.8-.2l5.6 4.4 8.6-8.5c.5-.5 1.3-.5 1.8 0s.5 1.3 0 1.8l-9.4 9.3c-.2.2-.6.4-.9.4-.3 0-.6-.1-.8-.3l-6.5-5.1c-.5-.4-.6-1.2-.2-1.8z" transform="translate(423 130)"/></g></g></g></g></symbol><symbol id="certified-fill" viewBox="0 0 23 27" xmlns="http://www.w3.org/2000/svg"><style>.avst0{fill:#27ae60}</style><title>Vehiculo garantizado</title><path class="avst0" d="M22 11.5c-.7-.7-.8-1.8-.4-2.6.3-.6.3-1.4.1-2-.3-.6-.8-1.1-1.5-1.3-.9-.2-1.6-1-1.7-2-.1-.7-.4-1.3-1-1.7-.6-.4-1.3-.5-1.9-.2-.9.3-1.9 0-2.5-.7-.5-.7-1.1-1-1.8-1S10 .3 9.6.9C9 1.7 8 2 7.1 1.6c-.7-.2-1.4-.1-2 .3-.6.4-.9 1-1 1.7-.1 1-.8 1.8-1.7 2-.6.1-1.2.6-1.5 1.2-.2.7-.2 1.4.1 2 .5.9.3 1.9-.4 2.6-.5.6-.7 1.3-.6 2 .1.6.5 1.3 1.1 1.6.8.5 1.3 1.5 1.1 2.4-.1.7 0 1.4.5 1.9.4.5 1.1.8 1.8.8.6 0 1.1.2 1.5.5v7l5.5-2.8 5.3 2.6.1-7.1c.4-.2.8-.3 1.2-.3.7 0 1.3-.2 1.8-.8.4-.5.6-1.2.5-1.9-.2-1 .2-1.9 1.1-2.4.6-.3 1-.9 1.1-1.6.1-.6-.1-1.3-.6-1.8zm-15.8.2c.3-.3.7-.4 1.1-.1l3.3 2.6 5-5c.3-.3.8-.3 1.1 0 .3.3.3.8 0 1.1l-5.5 5.5c-.1.1-.3.2-.5.2s-.3-.1-.5-.2l-3.8-3c-.4-.3-.5-.7-.2-1.1zm5.3 10.9L8 24.4v-1.5h.1c.7.2 1.4.1 1.9-.3.8-.6 1.8-.6 2.6 0 .6.4 1.3.5 1.9.3.1 0 .2-.1.4-.2v1.5l-3.4-1.6z"/></symbol><symbol id="certified-label" viewBox="0 0 38 80" xmlns="http://www.w3.org/2000/svg"><style>.awst0{fill:#27ae60}</style><title>Certified icon</title><g id="awCertified-cars"><g transform="translate(-766 -1398)" id="awDesktop-AD-detail---Full-icons"><g id="awCard-Vehiculo-Certificado" transform="translate(94 193)"><g id="awCertified-icon"><path class="awst0" d="M0 0v79l19.2-7.9 18.1 7.3.3-78.4H0zm31.1 46.2c.2.7-.1 1.5-.5 2-.5.6-1.3.9-2 .8-1.5-.1-2.9.8-3.4 2.1-.3.7-.9 1.2-1.6 1.4-.7.2-1.5.1-2.2-.4-1.2-.9-2.9-.9-4.1 0-.6.4-1.4.6-2.2.4-.7-.2-1.3-.7-1.6-1.4-.5-1.3-1.8-2.2-3.2-2.2h-.2c-.8 0-1.5-.3-2-.8-.5-.6-.7-1.3-.5-2 .3-1.4-.4-2.9-1.7-3.6-.7-.4-1.1-1-1.2-1.7-.1-.7.1-1.5.7-2 1.1-1.1 1.3-2.6.6-3.9-.4-.6-.4-1.4-.1-2.1.3-.7.9-1.2 1.7-1.3 1.5-.3 2.6-1.5 2.7-3 .1-.7.5-1.4 1.1-1.8.6-.4 1.5-.5 2.2-.2 1.4.5 3 .1 3.9-1.1.5-.6 1.2-.9 2-.9s1.5.3 2 .9c.9 1.2 2.5 1.6 3.9 1.1.7-.3 1.5-.2 2.2.2.6.4 1.1 1.1 1.1 1.8.1 1.5 1.2 2.7 2.7 3 .7.2 1.4.7 1.7 1.3.3.7.3 1.4-.1 2.1-.7 1.3-.5 2.9.6 3.9.5.5.8 1.3.7 2-.1.7-.6 1.4-1.2 1.7-1.7.8-2.3 2.3-2 3.7z" transform="translate(672.333 1206)"/><path class="awst0" d="M11.2 38.6c.4-.5 1.1-.6 1.5-.2l4.8 3.8 7.3-7.3c.4-.4 1.1-.4 1.5 0 .4.4.4 1.1 0 1.5l-8 7.9c-.2.2-.5.3-.8.3-.2 0-.5-.1-.7-.2l-5.5-4.3c-.3-.3-.4-1-.1-1.5z" transform="translate(672.333 1206)"/></g></g></g></g></symbol><symbol viewBox="0 0 32 21" id="chassis" xmlns="http://www.w3.org/2000/svg"><title>Combined Shape</title><path d="M7.72 20.538H2.334c-.607 0-1.043-.316-1.264-.796a1.663 1.663 0 0 1-.156-.692v-7.711c0-1.022.608-1.693 1.533-2.032a3.29 3.29 0 0 1 .231-.077c.114-.372.37-.67.71-.895.084-.056.168-.104.249-.145.13-.597.52-1.022 1.067-1.263.204-.09.404-.146.587-.179a174.733 174.733 0 0 1 .698-1.298H3.25a.85.85 0 1 1 0-1.7h3.677c.502-.89.902-1.562 1.186-1.976C8.476 1.29 9.126.99 10.05.796V.35H21.1v.377c1.189.194 2.002.508 2.432 1.068.302.393.734 1.063 1.272 1.955H27.9a.85.85 0 0 1 0 1.7h-2.097a136.61 136.61 0 0 1 .725 1.277c.196.03.413.086.636.178.573.236.988.658 1.127 1.258.088.042.18.09.272.147.368.229.644.534.762.92.076.023.152.048.23.077.924.34 1.532 1.01 1.532 2.032v4.645c0 .305-.107.7-.422 1.086-.121.149-.264.28-.427.395v1.585c0 .19-.037.432-.155.69-.22.48-.654.798-1.26.798h-4.397a1.45 1.45 0 0 1-.694-.185c-.444-.243-.72-.695-.72-1.303v-.212H10.993a2 2 0 0 1-3.273 1.7zm-.705-1.29a2.02 2.02 0 0 1-.008-.41H4.96c-.803 0-1.403-.334-1.798-.886a3.46 3.46 0 0 1-.974-.251v1.349c0 .022.011.098.039.158.023.052.028.055.106.055h4.436s.042-.016.246-.015zm.594-1.686a2.002 2.002 0 0 1 2.781.001h16.53c.541 0 .84-.225 1.027-.653.124-.284.167-.587.165-.78v-1.542H3.888v1.55c-.002.192.04.5.157.788.172.423.439.637.915.637h2.65zm21.778-6.934v5.5c.001.112-.005.238-.021.372h.011a.938.938 0 0 0 .3-.236.555.555 0 0 0 .136-.28v-4.645c0-.322-.14-.546-.426-.71zm-.582 7.328c-.417.551-1.046.882-1.885.882h-2.633v.212c0 .136.017.162.057.185.036.019.083.028.082.028h4.398c.074 0 .076-.002.1-.053a.49.49 0 0 0 .038-.16v-1.114a4.408 4.408 0 0 1-.157.02zm-2.393-9.953a1.405 1.405 0 0 0-.276-.033.637.637 0 0 1-.202-.033h-1.081l-.507 2.217.556.609h1.51v-2.76zm1.276 1.288V11.4a.638.638 0 0 1-.638.638h-2.429a.638.638 0 0 1-.47-.208l-.971-1.062a.638.638 0 0 1-.151-.573l.516-2.258H8.455l.516 2.258a.638.638 0 0 1-.15.573l-.972 1.062a.638.638 0 0 1-.47.208H4.95a.638.638 0 0 1-.638-.638V9.283a1.233 1.233 0 0 0-.222.116c-.143.094-.202.18-.202.275v3.639h24.224V9.66c0-.083-.063-.17-.22-.266a1.405 1.405 0 0 0-.204-.104zM25.218 7a150.304 150.304 0 0 0-.89-1.55H16.85V7h8.369zM14.3 7V5.45H7.44A164.813 164.813 0 0 0 6.6 7h7.7zm-8.36.937a.637.637 0 0 1-.247.05.895.895 0 0 0-.106.007v2.769h1.51l.557-.61-.507-2.216H5.94zM8.394 3.75H23.31a15.93 15.93 0 0 0-.789-1.179c-.163-.213-.675-.4-1.42-.542v.021H10.316c-.617.131-1.037.294-1.166.466-.18.263-.437.685-.755 1.234zm-5.76 12.755a3.133 3.133 0 0 1-.021-.374v-5.503c-.286.165-.426.39-.426.711v4.645c0 .036.032.153.136.28a.944.944 0 0 0 .31.241zM9 18.333a.667.667 0 1 0 0 1.334.667.667 0 0 0 0-1.334z"/></symbol><symbol id="check" viewBox="0 0 64 64" xmlns="http://www.w3.org/2000/svg"><defs><style>.aycls-1{fill:#959290}</style></defs><title>check</title><path class="aycls-1" d="M21.92 54.91L2.51 33.34a2 2 0 0 1 3-2.68l16.57 18.43 36.51-36.5a2 2 0 0 1 2.83 2.83z"/></symbol><symbol viewBox="0 0 64 64" id="cilinder-capacity" xmlns="http://www.w3.org/2000/svg"><title>cilinder-capacity</title><g fill-rule="evenodd"><path d="M32 24c15.388 0 28-4.85 28-12S47.388 0 32 0 4 4.85 4 12s12.612 12 28 12zm0-4c-13.33 0-24-4.103-24-8 0-3.897 10.67-8 24-8s24 4.103 24 8c0 3.897-10.67 8-24 8zm24 4c0 3.897-10.67 8-24 8S8 27.897 8 24H4c0 7.15 12.612 12 28 12s28-4.85 28-12h-4zm0 16c0 3.897-10.67 8-24 8S8 43.897 8 40H4c0 7.15 12.612 12 28 12s28-4.85 28-12h-4z"/><path d="M56 12v40c0 3.897-10.67 8-24 8S8 55.897 8 52V12H4v40c0 7.15 12.612 12 28 12s28-4.85 28-12V12h-4z"/></g></symbol><symbol viewBox="0 0 64 64" id="cilinders" xmlns="http://www.w3.org/2000/svg"><defs><style>.bacls-1{fill:#959290}</style></defs><title>cilinders</title><path class="bacls-1" d="M32 64h-2a10 10 0 0 1-10-10V44h6V34H16a4 4 0 0 1-4-4V6a6 6 0 0 1 6-6h26a6 6 0 0 1 6 6v24a4 4 0 0 1-4 4H36v10h6v10a10 10 0 0 1-10 10zm-8-16v6a6 6 0 0 0 6 6h2a6 6 0 0 0 6-6v-6h-2a4 4 0 0 1-4-4V34h-2v10a4 4 0 0 1-4 4zm12-18h10V20H16v10zM16 16h30v-4H16zm0-8h30V6a2 2 0 0 0-2-2H18a2 2 0 0 0-2 2zm15 48a3 3 0 1 1 3-3 3 3 0 0 1-3 3z" id="baCapa_3" data-name="Capa 3"/></symbol><symbol viewBox="0 0 64 64" id="close" xmlns="http://www.w3.org/2000/svg"><defs><style>.bbcls-1{fill:#959290}</style></defs><title>close</title><path class="bbcls-1" d="M60 62a2 2 0 0 1-1.41-.59L32 34.83 5.41 61.41a2 2 0 0 1-2.83-2.83L29.17 32 2.59 5.41a2 2 0 0 1 2.82-2.82L32 29.17 58.59 2.59a2 2 0 0 1 2.83 2.83L34.83 32l26.58 26.59A2 2 0 0 1 60 62z" id="bbCapa_4" data-name="Capa 4"/></symbol><symbol viewBox="0 0 64 64" id="close2" xmlns="http://www.w3.org/2000/svg"><defs><style>.bccls-1{fill:#959290}</style></defs><title>close2</title><path class="bccls-1" d="M32 64a32 32 0 1 1 32-32 32 32 0 0 1-32 32zm0-60a28 28 0 1 0 28 28A28 28 0 0 0 32 4zm10 40a2 2 0 0 1-1.41-.59L32 34.83l-8.59 8.59a2 2 0 0 1-2.83-2.83L29.17 32l-8.59-8.59a2 2 0 0 1 2.83-2.83L32 29.17l8.59-8.59a2 2 0 0 1 2.83 2.83L34.83 32l8.59 8.59A2 2 0 0 1 42 44z" id="bcCapa_4" data-name="Capa 4"/></symbol><symbol viewBox="0 0 64 64" id="co2" xmlns="http://www.w3.org/2000/svg"><title>co2</title><g fill-rule="evenodd"><path d="M23.5 35.912c0 1.113-.81 1.97-1.75 1.97S20 37.025 20 35.912V27.97c0-1.113.81-1.971 1.75-1.971s1.75.858 1.75 1.97a2 2 0 1 0 4 0c0-3.272-2.548-5.97-5.75-5.97S16 24.698 16 27.97v7.942c0 3.272 2.548 5.97 5.75 5.97s5.75-2.698 5.75-5.97a2 2 0 1 0-4 0zm11 1.97c-.94 0-1.75-.857-1.75-1.97V27.97c0-1.113.81-1.971 1.75-1.971s1.75.858 1.75 1.97v7.942c0 1.113-.81 1.97-1.75 1.97zm0 4c3.202 0 5.75-2.698 5.75-5.97V27.97c0-3.273-2.548-5.971-5.75-5.971s-5.75 2.698-5.75 5.97v7.942c0 3.272 2.548 5.97 5.75 5.97zm14.202-2.94a4.241 4.241 0 0 0 .086-6.021l-.144-.147a4.154 4.154 0 0 0-5.932.002l-.637.647a2 2 0 1 0 2.85 2.807l.638-.648a.155.155 0 0 1 .232 0l.143.145a.241.241 0 0 1-.006.33l-3.14 3.015c-1.648 1.584-.546 4.399 1.759 4.399h3.306a2 2 0 0 0 .275-3.982l.57-.547z"/><path d="M64 32c0-4.907-2.55-9.344-6.566-11.862a8.999 8.999 0 0 0-8.788-12.13A13.994 13.994 0 0 0 27.889 2.59 7.984 7.984 0 0 0 21.999 0a8 8 0 0 0-8 8C7.217 9.112 2 14.947 2 22c0 1.96.41 3.864 1.185 5.618A7.987 7.987 0 0 0 0 34c0 3.27 1.97 6.096 4.806 7.33A13.878 13.878 0 0 0 4 46c0 7.732 6.268 14 14 14 .828 0 1.651-.077 2.47-.227A7.966 7.966 0 0 0 26 62a7.96 7.96 0 0 0 4.703-1.533A13.96 13.96 0 0 0 40 64c4.697 0 8.982-2.336 11.555-6.098.479.065.96.098 1.445.098 6.075 0 11-4.925 11-11 0-2.604-.914-5.061-2.522-7.003A13.904 13.904 0 0 0 64 32zm-6.661 6.773l-1.418 1.535 1.595 1.35A6.974 6.974 0 0 1 60 47a7 7 0 0 1-7 7 6.99 6.99 0 0 1-1.883-.265l-1.543-.43-.757 1.411A9.994 9.994 0 0 1 40 60a9.975 9.975 0 0 1-7.705-3.626l-1.6-1.931-1.527 1.988a3.98 3.98 0 0 1-6.381-.06l-.815-1.102-1.322.363A9.985 9.985 0 0 1 18 56c-5.523 0-10-4.477-10-10 0-1.779.472-3.49 1.358-5.013l1.631-2.804-3.237-.198A3.996 3.996 0 0 1 4 34a3.998 3.998 0 0 1 2.575-3.732l2.284-.873-1.308-2.065A9.92 9.92 0 0 1 6 22c0-5.523 4.477-10 10-10 .16.011.218.015.288.017l2.942.1-.991-2.772A3.975 3.975 0 0 1 17.999 8a3.999 3.999 0 1 1 7.651-1.627l1.193 2.664 2.054-2.073A9.958 9.958 0 0 1 36 4a9.997 9.997 0 0 1 9.478 6.831l.58 1.737 1.782-.425A4.97 4.97 0 0 1 49 12a4.999 4.999 0 0 1 4.109 7.843l-1.391 2.007 2.242.968A9.998 9.998 0 0 1 60 32c0 2.542-.96 4.93-2.661 6.773z"/></g></symbol><symbol id="comments" viewBox="0 0 64 64" xmlns="http://www.w3.org/2000/svg"><defs><style>.becls-1{fill:#959290}</style></defs><title>comments</title><path class="becls-1" d="M15 60.59a3 3 0 0 1-3-3V48H6a6 6 0 0 1-6-6V10a6 6 0 0 1 6-6h52a6 6 0 0 1 6 6v32a6 6 0 0 1-6 6H28.83L17.12 59.71a3 3 0 0 1-2.12.88zM6 8a2 2 0 0 0-2 2v32a2 2 0 0 0 2 2h10v11.17L27.17 44H58a2 2 0 0 0 2-2V10a2 2 0 0 0-2-2zm32 28H14a2 2 0 0 1 0-4h24a2 2 0 0 1 0 4zm12-8H14a2 2 0 0 1 0-4h36a2 2 0 0 1 0 4zm0-8H14a2 2 0 0 1 0-4h36a2 2 0 0 1 0 4z"/></symbol><symbol viewBox="0 0 64 64" id="consumption" xmlns="http://www.w3.org/2000/svg"><defs><style>.bfcls-1{fill:#959290}</style></defs><title>consumption</title><path class="bfcls-1" d="M52 56.35a2 2 0 0 1-1.33-3.49A28 28 0 1 0 4 32a27.48 27.48 0 0 0 9.33 20.69 2 2 0 1 1-2.67 3A31.43 31.43 0 0 1 0 32a32 32 0 1 1 53.33 23.84 2 2 0 0 1-1.33.51zM48 46a2 2 0 0 1-1.6-3.2 17.82 17.82 0 0 0 1.54-19 2 2 0 0 1 3.54-1.86 21.82 21.82 0 0 1-1.89 23.3A2 2 0 0 1 48 46zm-32 0a2 2 0 0 1-1.6-.8A21.8 21.8 0 0 1 10 32a22 22 0 0 1 22-22 21.69 21.69 0 0 1 10.16 2.51 2 2 0 1 1-1.86 3.54A17.73 17.73 0 0 0 32 14a18 18 0 0 0-18 18 17.83 17.83 0 0 0 3.6 10.76A2 2 0 0 1 16 46zm16-6a8 8 0 1 1 4.06-14.89l8.52-8.52a2 2 0 0 1 2.83 2.83l-8.52 8.52A8 8 0 0 1 32 40zm0-12a4 4 0 1 0 3 1.36l-.19-.17-.16-.19A4 4 0 0 0 32 28z" id="bfCapa_3" data-name="Capa 3"/></symbol><symbol viewBox="0 0 64 64" id="date" xmlns="http://www.w3.org/2000/svg"><defs><style>.bgcls-1{fill:#959290}</style></defs><title>date</title><path class="bgcls-1" d="M58 64H6a6 6 0 0 1-6-6V12a6 6 0 0 1 6-6h8a6 6 0 0 1 12 0h12a6 6 0 0 1 12 0h8a6 6 0 0 1 6 6v46a6 6 0 0 1-6 6zM6 10a2 2 0 0 0-2 2v46a2 2 0 0 0 2 2h52a2 2 0 0 0 2-2V12a2 2 0 0 0-2-2h-8v2a6 6 0 0 1-12 0v-2H26v2a6 6 0 0 1-12 0v-2zm36-2v4a2 2 0 0 0 4 0V6a2 2 0 0 0-4 0zM18 8v4a2 2 0 0 0 4 0V6a2 2 0 0 0-4 0zm34 44h-6a2 2 0 0 1 0-4h6a2 2 0 0 1 0 4zm-17 0h-6a2 2 0 0 1 0-4h6a2 2 0 0 1 0 4zm-17 0h-6a2 2 0 0 1 0-4h6a2 2 0 0 1 0 4zm34-8h-6a2 2 0 0 1 0-4h6a2 2 0 0 1 0 4zm-17 0h-6a2 2 0 0 1 0-4h6a2 2 0 0 1 0 4zm-17 0h-6a2 2 0 0 1 0-4h6a2 2 0 0 1 0 4zm34-8h-6a2 2 0 0 1 0-4h6a2 2 0 0 1 0 4zm-17 0h-6a2 2 0 0 1 0-4h6a2 2 0 0 1 0 4zm-17 0h-6a2 2 0 0 1 0-4h6a2 2 0 0 1 0 4zm34-8h-6a2 2 0 0 1 0-4h6a2 2 0 0 1 0 4zm-17 0h-6a2 2 0 0 1 0-4h6a2 2 0 0 1 0 4zm-17 0h-6a2 2 0 0 1 0-4h6a2 2 0 0 1 0 4z" id="bgCapa_4" data-name="Capa 4"/></symbol><symbol viewBox="0 0 64 64" id="delete" xmlns="http://www.w3.org/2000/svg"><defs><style>.bhcls-1{fill:#959290}</style></defs><title>delete</title><path class="bhcls-1" d="M46 64H18a6 6 0 0 1-6-6V17h-1a5 5 0 0 1 0-10h13V4a4 4 0 0 1 4-4h8a4 4 0 0 1 4 4v3h13a5 5 0 0 1 0 10h-1v41a6 6 0 0 1-6 6zM16 17v41a2 2 0 0 0 2 2h28a2 2 0 0 0 2-2V17zm-1.94-4H53a1 1 0 0 0 0-2H11a1 1 0 0 0 0 2h3.06zM28 7h8V4h-8zm14 49a2 2 0 0 1-2-2V23a2 2 0 0 1 4 0v31a2 2 0 0 1-2 2zm-10 0a2 2 0 0 1-2-2V23a2 2 0 0 1 4 0v31a2 2 0 0 1-2 2zm-10 0a2 2 0 0 1-2-2V23a2 2 0 0 1 4 0v31a2 2 0 0 1-2 2z" id="bhCapa_4" data-name="Capa 4"/></symbol><symbol viewBox="0 0 64 64" id="deposit" xmlns="http://www.w3.org/2000/svg"><title>deposit</title><g fill-rule="evenodd"><path d="M54 56H10a6 6 0 0 1-6-6V30a6 6 0 0 1 6-6h44a6 6 0 0 1 6 6v20a6 6 0 0 1-6 6zm0 4c5.523 0 10-4.477 10-10V30c0-5.523-4.477-10-10-10H10C4.477 20 0 24.477 0 30v20c0 5.523 4.477 10 10 10h44z"/><path d="M10 24h16V12H10v12zm4-4v-4h8v4h-8z"/><path d="M10 12V8h16v4H10zm16 4a4 4 0 0 0 4-4V8a4 4 0 0 0-4-4H10a4 4 0 0 0-4 4v4a4 4 0 0 0 4 4h16zm30.234 18.495c-1.867-.22-3.715.39-5.237 1.724l-1.136.997c-1.191 1.045-2.53 1.045-3.722 0l-1.64-1.439c-2.7-2.37-6.297-2.37-8.998 0l-1.64 1.44c-1.191 1.044-2.53 1.044-3.722-.001l-1.64-1.439c-2.7-2.37-6.297-2.37-8.998 0l-1.64 1.44c-1.191 1.044-2.53 1.044-3.722-.001l-1.136-.997c-1.522-1.334-3.371-1.944-5.238-1.724a2 2 0 0 0 .47 3.973c.715-.085 1.443.155 2.13.758l1.136.997c2.7 2.369 6.297 2.369 8.998 0l1.64-1.44c1.191-1.044 2.53-1.044 3.722 0l1.64 1.44c2.7 2.369 6.297 2.369 8.998 0l1.64-1.44c1.191-1.044 2.53-1.044 3.722 0l1.64 1.44c2.7 2.369 6.297 2.369 8.998 0l1.136-.997c.687-.603 1.415-.843 2.13-.758a2 2 0 0 0 .47-3.973z"/></g></symbol><symbol id="discount-fill" viewBox="0 0 22 22" xmlns="http://www.w3.org/2000/svg"><style>.bjst0{fill:#27ae60}</style><title>Descuento</title><g id="bjCertified-cars"><g transform="translate(-154 -299)" id="bjCard-Mobile"><g id="bjTags-card"><path class="bjst0" d="M9.7 13c0-1.1-.2-1.7-.7-1.7-.2 0-.4.1-.5.4-.1.3-.2.7-.2 1.3s.1 1 .2 1.3c.1.3.3.4.5.4.4 0 .7-.6.7-1.7zm6.3 2.3c-.2 0-.4.1-.5.4-.1.3-.2.7-.2 1.3s.1 1 .2 1.3c.1.3.3.4.5.4.4 0 .7-.6.7-1.7s-.3-1.7-.7-1.7z" transform="translate(153 295)"/><path class="bjst0" d="M14 4h-4c-5 0-9 4-9 9v4c0 5 4 9 9 9h4c5 0 9-4 9-9v-4c0-5-4-9-9-9zM7.2 15.3c-.4-.5-.6-1.3-.6-2.3 0-2.1.8-3.1 2.4-3.1.8 0 1.4.3 1.8.8.4.5.6 1.3.6 2.3 0 1-.2 1.8-.6 2.4-.4.5-1 .8-1.8.8-.8-.1-1.4-.3-1.8-.9zM8.9 20l5.5-10H16l-5.5 10H8.9zm8.9-.7c-.4.5-1 .8-1.8.8s-1.3-.3-1.7-.8c-.4-.5-.6-1.3-.6-2.3 0-2.1.8-3.1 2.4-3.1.8 0 1.4.3 1.8.8.4.5.6 1.3.6 2.3-.1 1-.3 1.8-.7 2.3z" transform="translate(153 295)"/></g></g></g></symbol><symbol viewBox="0 0 512 512" id="dislike" xmlns="http://www.w3.org/2000/svg"><path d="M206.8.5c145.2 0 146.3 6 164.3 19.6 9.5 7.2 27.5 12.1 93.3 16.4 4.8.3 9.3 2.1 12.3 5.8C478.2 44 511 92 511 168.7c0 75.6-23.5 110.1-24.5 111.7-2.9 4.7-8 7.5-13.5 7.5-54 0-128.8 68.9-179.1 189.2-8.7 20.8-10.5 34.5-42.5 34.5-18.2 0-38.5-13-48.6-29.7-20.6-34.1-10.1-107.4-.5-146.5-32.9.3-92.6.7-121 .7-39.5 0-65.6-23.5-66.4-58-.3-11.3 1.2-25.9 4.5-33.4C10.7 236-.5 222.9-1 206.1c-.6-21.7 13.6-38.3 22.7-47.8-2.1-6.3-6.2-14.7-5.8-24.7 1-24.6 20-40.5 31.9-48.8-1-6.7-1.7-19.5.4-29.3 8.5-39.2 66.1-55 158.6-55zm249.1 68.4c-57.3-4.7-87.9-11.2-104-23.3-12.5-9.4-10.6-13.1-145.1-13.1-41 0-121.3 1.7-127.4 29.9-2.5 11.3 9.4 22.3 9.5 22.4 3.2 8-.4 17.4-8.3 20.9-.1.1-32 11.5-32.8 29.3-.5 11.4 7.4 18.2 7.5 18.5 4.6 7.2 2.9 17.1-4.1 22.1-.1 0-20.8 12.6-20.2 29.7.4 13.5 18.2 23.1 18.8 23.4 4 2.3 6.9 6.2 7.8 10.8.9 4.6-.1 9.3-2.9 12.9 0 0-8.1 12.9-7.8 25 .6 25.9 28.5 26.7 34.5 26.7 40.3 0 143.8-.4 143.8-.4 5.6 0 10.4 2.6 13.4 7.1s3.2 10 1.5 15.1c-15.6 44.9-24.3 115.5-9.8 139.6 4.3 7.1 5.2 14.2 21.2 14.2 2.2 0 7.5-1.7 13-14.9C317.8 336.9 397.6 263 462.9 256.4c5.6-12.8 16.2-39.5 16.2-87.8 0-49.2-15.6-87.3-23.2-99.7z"/></symbol><symbol id="double-arrow-left" viewBox="0 0 64 64" xmlns="http://www.w3.org/2000/svg"><defs><style>.blcls-1{fill:#959290}</style></defs><title>double-arrow-left</title><path class="blcls-1" d="M53 62a2 2 0 0 1-1.44-.61L23.2 32 52.59 2.59a2 2 0 0 1 2.83 2.83L28.8 32l25.6 26.61A2 2 0 0 1 53 62zm-14 0a2 2 0 0 1-1.44-.61L9.2 32 38.59 2.59a2 2 0 0 1 2.83 2.83L14.8 32l25.6 26.61A2 2 0 0 1 39 62z"/></symbol><symbol viewBox="0 0 64 64" id="edit" xmlns="http://www.w3.org/2000/svg"><defs><style>.bmcls-1{fill:#959290}</style></defs><title>edit</title><path class="bmcls-1" d="M5.79 61.21A3 3 0 0 1 3 57.09l2.75-6.88v-.06l4.38-10.85v-.08l.14-.34 36-36a8 8 0 0 1 11.31 0L61.1 6.4a8 8 0 0 1 0 11.31l-36 36-.34.14h-.08L6.91 61a3 3 0 0 1-1.12.21zm.37-2.07zm2.21-4.68l-.78 2 2-.79zm1.61-4L13.62 54l6.83-2.73-7.71-7.71zM20.83 46L24 49.17 55.17 18 52 14.83zm-6-6L18 43.17 49.17 12 46 8.83zm38.58-29.41L58 15.17l.34-.34a4 4 0 0 0 0-5.66l-3.51-3.51a4 4 0 0 0-5.66 0l-.34.34z" id="bmCapa_4" data-name="Capa 4"/></symbol><symbol viewBox="0 0 64 64" id="edit-user" xmlns="http://www.w3.org/2000/svg"><defs><style>.bncls-1{fill:#959290}</style></defs><title>edit-user</title><path class="bncls-1" d="M33 64a2.65 2.65 0 0 1-2.46-3.63l4-10 18.58-19.12a5.22 5.22 0 0 1 3.69-1.59h.07a5.22 5.22 0 0 1 3.66 1.49L62.48 33a5.26 5.26 0 0 1 .1 7.43L44 59.53l-9.93 4.25A2.65 2.65 0 0 1 33 64zm5-11.47l-2.49 6.29 6.22-2.66 18-18.49a1.26 1.26 0 0 0 0-1.78L57.76 34a1.32 1.32 0 0 0-.89-.36A1.25 1.25 0 0 0 56 34zM5.68 56.35A5.44 5.44 0 0 1 .25 51a8.15 8.15 0 0 1 4.33-7.33l14.1-7.5a18.83 18.83 0 0 1-7-14.42l-.12-9.16a8.91 8.91 0 0 1 2.72-6.51l1.31-1.26a17 17 0 0 1 23.28-.32l1.33 1.23a8.91 8.91 0 0 1 2.89 6.44l.12 9.16a18.82 18.82 0 0 1-6.59 14.6 2 2 0 0 1-1.9 3.49 3.72 3.72 0 0 1-1-6.31 14.84 14.84 0 0 0 5.44-11.72l-.12-9.16a4.89 4.89 0 0 0-1.59-3.54l-1.28-1.23a13 13 0 0 0-17.78.24L17.08 9a4.9 4.9 0 0 0-1.49 3.58l.12 9.16a14.84 14.84 0 0 0 5.75 11.57 3.72 3.72 0 0 1-.68 6.31L6.46 47.19a4.16 4.16 0 0 0-2.21 3.74 1.44 1.44 0 0 0 1.46 1.42l18.56-.25a2 2 0 0 1 .05 4l-18.56.25z" id="bnCapa_4" data-name="Capa 4"/></symbol><symbol viewBox="0 0 64 64" id="eye" xmlns="http://www.w3.org/2000/svg"><defs><style>.bocls-1{fill:#959290}</style></defs><title>eye</title><path class="bocls-1" d="M32 52C16.29 52 3.36 36.9.93 33.87a3 3 0 0 1 0-3.74C3.36 27.1 16.29 12 32 12c15.7 0 28.63 15.09 31.06 18.12a3 3 0 0 1 0 3.76C60.64 36.9 47.71 52 32 52zm0-36a16 16 0 1 0 16 16 16 16 0 0 0-16-16zm17.78 6.85a20 20 0 0 1 0 18.3A59.1 59.1 0 0 0 59.44 32a59.1 59.1 0 0 0-9.66-9.15zM4.56 32a59.14 59.14 0 0 0 9.66 9.15 20 20 0 0 1 0-18.3A59.18 59.18 0 0 0 4.56 32zM32 42a10 10 0 1 1 10-10 10 10 0 0 1-10 10zm0-16a6 6 0 1 0 6 6 6 6 0 0 0-6-6z" id="boCapa_4" data-name="Capa 4"/></symbol><symbol id="facebook" viewBox="0 0 64 64" xmlns="http://www.w3.org/2000/svg"><defs><style>.bpcls-1{fill:#959290}</style></defs><title>facebook</title><path class="bpcls-1" d="M37 0h10v11h-8a2 2 0 0 0-2 2v8h10c-.45 5.33-1 11-1 11h-9v32H23.55L24 32h-7V21h7v-8c0-1.34-.34-13 13-13z"/></symbol><symbol viewBox="0 0 64 64" id="filters" xmlns="http://www.w3.org/2000/svg"><defs><style>.bqcls-1{fill:#959290}</style></defs><title>filters</title><path class="bqcls-1" d="M46 60a8 8 0 0 1-7.75-6H2a2 2 0 0 1 0-4h36.25a8 8 0 0 1 15.49 0H62a2 2 0 0 1 0 4h-8.25A8 8 0 0 1 46 60zm0-12a4 4 0 1 0 4 4 4 4 0 0 0-4-4zm-30-8a8 8 0 0 1-7.75-6H2a2 2 0 0 1 0-4h6.25a8 8 0 0 1 15.49 0H62a2 2 0 0 1 0 4H23.75A8 8 0 0 1 16 40zm0-12a4 4 0 1 0 4 4 4 4 0 0 0-4-4zm14-8a8 8 0 0 1-7.75-6H2a2 2 0 0 1 0-4h20.25a8 8 0 0 1 15.49 0H62a2 2 0 0 1 0 4H37.75A8 8 0 0 1 30 20zm0-12a4 4 0 1 0 4 4 4 4 0 0 0-4-4z" id="bqCapa_4" data-name="Capa 4"/></symbol><symbol viewBox="0 0 64 64" id="fuel" xmlns="http://www.w3.org/2000/svg"><defs><style>.brcls-1{fill:#959290}</style></defs><title>fuel</title><path class="brcls-1" d="M46 64H6a4 4 0 0 1-4-4v-2.76a4 4 0 0 1 2.21-3.58l1.79-.9V8a8 8 0 0 1 8-8h24a8 8 0 0 1 8 8v12a8 8 0 0 1 8 8v18a2 2 0 0 0 4 0V21.66A6 6 0 0 1 54 16v-1l-4.09-2.21a2 2 0 1 1 1.9-3.52l8.09 4.37a4 4 0 0 1 2.1 3.55V46a6 6 0 0 1-12 0V28a4 4 0 0 0-4-4v28.76l1.79.89A4 4 0 0 1 50 57.24V60a4 4 0 0 1-4 4zM8.47 56L6 57.24V60h40v-2.76L43.53 56zM10 52h32V8a4 4 0 0 0-4-4H14a4 4 0 0 0-4 4zm26-12H16a2 2 0 0 1 0-4h20a2 2 0 0 1 0 4zm0-8H16a2 2 0 0 1 0-4h20a2 2 0 0 1 0 4zm2-8H14V12a4 4 0 0 1 4-4h16a4 4 0 0 1 4 4zm-20-4h16v-8H18z" id="brCapa_3" data-name="Capa 3"/></symbol><symbol viewBox="0 0 64 64" id="fullscreen-close" xmlns="http://www.w3.org/2000/svg"><defs><style>.bscls-1{fill:#959290}</style></defs><title>fullscreen-close</title><path class="bscls-1" d="M60 62a2 2 0 0 1-1.41-.59L42 44.83V54a2 2 0 0 1-4 0V38h16a2 2 0 0 1 0 4h-9.17l16.58 16.59A2 2 0 0 1 60 62zM4 62a2 2 0 0 1-1.41-3.41L19.17 42H10a2 2 0 0 1 0-4h16v16a2 2 0 0 1-4 0v-9.17L5.41 61.41A2 2 0 0 1 4 62zm50-36H38V10a2 2 0 0 1 4 0v9.17L58.59 2.59a2 2 0 0 1 2.83 2.83L44.83 22H54a2 2 0 0 1 0 4zm-28 0H10a2 2 0 0 1 0-4h9.17L2.59 5.41a2 2 0 0 1 2.82-2.82L22 19.17V10a2 2 0 0 1 4 0z" id="bsCapa_4" data-name="Capa 4"/></symbol><symbol viewBox="0 0 64 64" id="fullscreen-open" xmlns="http://www.w3.org/2000/svg"><defs><style>.btcls-1{fill:#959290}</style></defs><title>fullscreen-open</title><path class="btcls-1" d="M62 62H46a2 2 0 0 1 0-4h9.17L38.59 41.41a2 2 0 0 1 2.83-2.83L58 55.17V46a2 2 0 0 1 4 0zm-44 0H2V46a2 2 0 0 1 4 0v9.17l16.59-16.58a2 2 0 0 1 2.83 2.83L8.83 58H18a2 2 0 0 1 0 4zm22-36a2 2 0 0 1-1.41-3.41L55.17 6H46a2 2 0 0 1 0-4h16v16a2 2 0 0 1-4 0V8.83L41.41 25.41A2 2 0 0 1 40 26zm-16 0a2 2 0 0 1-1.41-.59L6 8.83V18a2 2 0 0 1-4 0V2h16a2 2 0 0 1 0 4H8.83l16.58 16.59A2 2 0 0 1 24 26z" id="btCapa_4" data-name="Capa 4"/></symbol><symbol viewBox="0 0 64 64" id="gear-shift" xmlns="http://www.w3.org/2000/svg"><title>gear-shift</title><g fill-rule="evenodd"><path d="M30 36V26h-4v14h12V26h-4v10zm20 16v-2c0-1.1-.9-2-2.003-2H16.003A2 2 0 0 0 14 50v2h36zm-40-2a6 6 0 0 1 6.003-6h31.994A6.006 6.006 0 0 1 54 50v6H10v-6z"/><path d="M46 44l-4 4v-4h4zm-4 0v-2c0-1.1-.9-2-2.007-2H24.007A2 2 0 0 0 22 42v2h20zm-24-2a6 6 0 0 1 6.007-6h15.986A6.008 6.008 0 0 1 46 42v6H18v-6zM4 58a2 2 0 0 0 1.992 2h52.016a2 2 0 0 0 0-4H5.992A2 2 0 0 0 4 58zm-4 0a6 6 0 0 1 5.992-6h52.016C61.318 52 64 54.693 64 58a6 6 0 0 1-5.992 6H5.992C2.682 64 0 61.307 0 58zM20.01 0C16.694 0 14 2.688 14 5.996v4.008A5.998 5.998 0 0 0 20.01 16h1.98c1.109 0 2.01.9 2.01 1.996v4.008A6 6 0 0 0 29.996 28h4.008A5.992 5.992 0 0 0 40 22.01V12.004C40 5.374 34.626 0 27.998 0H20.01zm0 4h7.988A8.004 8.004 0 0 1 36 12.004V22.01c0 1.1-.892 1.99-1.996 1.99h-4.008A2 2 0 0 1 28 22.004v-4.008C28 14.688 25.306 12 21.99 12h-1.98A1.998 1.998 0 0 1 18 10.004V5.996C18 4.899 18.901 4 20.01 4z"/></g></symbol><symbol id="ghost" viewBox="0 0 64 64" xmlns="http://www.w3.org/2000/svg"><defs><style>.bvcls-1{fill:#959290}</style></defs><title>ghost</title><path class="bvcls-1" d="M40 62.3a3 3 0 0 1-2.43-1.24L32 53.4l-5.57 7.66a3 3 0 0 1-4.85 0L16 53.4l-4.57 6.29A3 3 0 0 1 6 57.92V26a26 26 0 0 1 52 0v31.92a3 3 0 0 1-5.43 1.76L48 53.4l-5.57 7.66A3 3 0 0 1 40 62.3zm-8-15.7l8 11 8-11 6 8.25V26a22 22 0 0 0-44 0v28.85l6-8.25 8 11zm23.81 10.74zM41 28a4 4 0 1 1 4-4 4 4 0 0 1-4 4zm-19 0a4 4 0 1 1 4-4 4 4 0 0 1-4 4z"/></symbol><symbol id="google" viewBox="0 0 64 64" xmlns="http://www.w3.org/2000/svg"><defs><style>.bwcls-1{fill:#959290}</style></defs><title>google</title><path class="bwcls-1" d="M64 34h-6v6h-6v-6h-6v-6h6v-6h6v6h6zm-24-2v-4H20v8h11.31a12 12 0 1 1-3.13-12.78l5.46-5.85A20 20 0 1 0 40 32z"/></symbol><symbol viewBox="0 0 64 64" id="horsepower" xmlns="http://www.w3.org/2000/svg"><title>horsepower</title><g fill-rule="evenodd"><path d="M57.996 28.824l1.18 1.18c.403.403.824 1.42.824 1.988v11.016c0 .848-.283 2.314-.602 3.111l-.51 1.276c-.108.269-.603.605-.886.605H56c0-2.21-1.785-4-4-4-1.863 0-3.853 1.234-4.687 2.902l-4.204 8.407c-.157.315-.764.691-1.114.691h-19.99c-.288 0-.785-.336-.891-.6L18.6 49.115C17.886 47.33 15.92 46 14.002 46h-2.004C12 46 12 26.005 12 26.005c0-.002 2.002-.005 2.002-.005 1.92 0 3.885-1.333 4.598-3.115l2.514-6.285c.106-.265.6-.6.877-.6h16.018c.219 0 .595.28.66.491l2.09 6.856c.563 1.846 2.42 3.325 4.342 3.457l.776.054c.044.003.123.088.123.14v2.004c0 2.079 1.59 3.957 3.636 4.298l2.07.345C54.013 34.03 56 32.336 56 30.002V28c.573 0 1.594.422 1.996.824zm-7.703.53c-.116-.019-.293-.228-.293-.352v-2.004c0-2.15-1.702-3.982-3.847-4.13l-.776-.054c-.266-.019-.713-.374-.792-.633l-2.09-6.856C41.917 13.43 39.989 12 38.009 12H21.991c-1.914 0-3.878 1.332-4.59 3.115L14.885 21.4c-.106.264-.6.6-.884.6h-2.004A4.004 4.004 0 0 0 8 26.005v19.99A4.001 4.001 0 0 0 11.998 50h2.004c.283 0 .778.335.884.6l2.514 6.285C18.113 58.668 20.081 60 22.005 60h19.99c1.866 0 3.857-1.233 4.692-2.902l4.204-8.407c.157-.315.764-.691 1.109-.691 0 2.215 1.788 4 3.998 4h2.004c1.92 0 3.885-1.333 4.6-3.119l.51-1.276c.508-1.27.888-3.24.888-4.597V31.992c0-1.63-.843-3.663-1.996-4.816l-1.18-1.18C59.672 24.844 57.634 24 56 24c-2.215 0-4 1.788-4 3.998v1.641l-1.707-.284z"/><path d="M56 46V28h-4v18h4zm-4 0h4V28h-4v18zM2 38h8a2 2 0 1 0 0-4H2a2 2 0 1 0 0 4zM25.564 23.96c.24-1.082 1.323-1.96 2.434-1.96h4.004c1.103 0 1.717.844 1.364 1.901L30.634 32.1c-.35 1.05.253 1.724 1.318 1.51l6.096-1.219c1.078-.215 1.548.419 1.056 1.402l-8.208 16.416c-.495.99-.77.906-.614-.184l1.436-10.048c.156-1.091-.605-1.799-1.67-1.586l-6.096 1.22c-1.078.215-1.76-.478-1.516-1.57l3.128-14.08z"/><path d="M2 46a2 2 0 1 0 4 0v-6.25a2 2 0 0 0-.095-.61L4 33.188V26a2 2 0 1 0-4 0v7.5a2 2 0 0 0 .095.61L2 40.062V46zM22 8h16a2 2 0 1 0 0-4H22a2 2 0 1 0 0 4z"/><path d="M28 6v8a2 2 0 1 0 4 0V6a2 2 0 1 0-4 0z"/></g></symbol><symbol viewBox="0 0 64 64" id="hour" xmlns="http://www.w3.org/2000/svg"><defs><style>.bycls-1{fill:#959290}</style></defs><title>hour</title><path class="bycls-1" d="M32 64a32 32 0 1 1 32-32 32 32 0 0 1-32 32zm0-60a28 28 0 1 0 28 28A28 28 0 0 0 32 4zm10 40a2 2 0 0 1-1.41-.59L30 32.83V12a2 2 0 0 1 4 0v19.17l9.41 9.41A2 2 0 0 1 42 44z" id="byCapa_4" data-name="Capa 4"/></symbol><symbol viewBox="0 0 64 64" id="info" xmlns="http://www.w3.org/2000/svg"><defs><style>.bzcls-1{fill:#959290}</style></defs><title>info</title><path class="bzcls-1" d="M32 64a32 32 0 1 1 32-32 32 32 0 0 1-32 32zm0-60a28 28 0 1 0 28 28A28 28 0 0 0 32 4zm4 46h-8a2 2 0 0 1 0-4h2V30h-2a2 2 0 0 1 0-4h6v20h2a2 2 0 0 1 0 4zm-4-28a4 4 0 1 1 4-4 4 4 0 0 1-4 4z" id="bzCapa_4" data-name="Capa 4"/></symbol><symbol id="iva" viewBox="0 0 51.9 51.9" xmlns="http://www.w3.org/2000/svg"><style>.cast0{fill:#27ae60}</style><title>@0,5ximpuestos</title><g transform="translate(-184 -819)" id="caDesktop-AD-detail---Full-icons_1_"><g id="caCard-Title_2_" transform="translate(8 689)"><g id="caImpuestos-incluidos_2_" transform="translate(132 130)"><path id="caIVA_2_" class="cast0" d="M60.8 28.4v-12h-3.1v12h3.1zm8.3 0h-4l-3.7-12H65l2.1 8.7h.1l2.1-8.7h3.5l-3.7 12zm5.8 0h-3.1l3.8-12h3.9l3.7 12h-3.4l-.7-2.5h-3.6l-.6 2.5zm2.5-9.3h-.1l-1.2 4.4h2.4l-1.1-4.4z"/></g></g></g><path class="cast0" d="M45.8 6.5H6c-3.4 0-6 2.9-6 6.5 0 1.2.3 2.3.8 3.2l19.9 29.9c1 2 3 3.2 5.2 3.2s4.2-1.3 5.2-3.2L51 16.3c.6-.9.8-2.1.8-3.2 0-3.7-2.7-6.6-6-6.6zm3.2 8.3c-.3.8-18.7 28.6-18.7 28.6-1 1.5-2.2 3.5-4.5 3.5-2.1 0-3.1-2.1-4.2-3.4L4.5 17.8c-.2-.3-.6-.9-.9-1.5-.8-.8-1.3-2-1.3-3.2 0-2.5 2.1-4.6 4.6-4.6l38.4.1c2.3 0 4.3 1.9 4.3 4.3 0 .8-.2 1.4-.6 1.9z"/></symbol><symbol id="iva-fill" viewBox="0 0 27 21" xmlns="http://www.w3.org/2000/svg"><style>.cbst0{fill:#27ae60}</style><title>Impuestos incluidos</title><path class="cbst0" d="M18.1 7.6c-.1-.3-.2-.6-.2-.7 0 .1-.1.4-.1.7-.1.3-.2 1-.5 1.9h1.3l-.3-1c0-.2-.1-.5-.2-.9z"/><path class="cbst0" d="M24.1 0h-21C1.4 0 0 1.4 0 3.2c0 .6.2 1.1.4 1.6l10.5 14.7c.5.9 1.6 1.6 2.7 1.6 1.2 0 2.2-.6 2.7-1.6 0 0 10.2-14.2 10.5-14.7.3-.5.4-1 .4-1.6.1-1.8-1.3-3.2-3.1-3.2zM8.6 11.9H7v-6h1.6v6zm4.6 0h-1.9l-2-6.1h1.8L12 9c.2.7.3 1.2.3 1.4 0-.2.1-.4.1-.7.1-.3.1-.5.2-.7l2.7-7H17l-3.8 9.9zm6 0l-.3-1.1h-2l-.3 1.1h-1.8l2-6.1H19l2 6.1h-1.8z"/></symbol><symbol id="km" viewBox="0 0 99 24" xmlns="http://www.w3.org/2000/svg"><style>.ccst0{fill:#4a4a4a}</style><title>Desktop AD detail - Full icons</title><path class="ccst0" d="M18.2 0H5.8C2.6 0 0 2.6 0 5.8v12.5C0 21.4 2.6 24 5.8 24h12.4c3.2 0 5.8-2.6 5.8-5.8V5.8C23.9 2.6 21.4 0 18.2 0zm4.2 18.2c0 2.3-1.9 4.2-4.2 4.2H5.8c-2.3 0-4.2-1.9-4.2-4.2V5.8c0-2.3 1.9-4.2 4.2-4.2h12.4c2.3 0 4.2 1.9 4.2 4.2v12.4zM68.2 0H55.8C52.6 0 50 2.6 50 5.8v12.5c0 3.2 2.6 5.8 5.8 5.8h12.4c3.2 0 5.8-2.6 5.8-5.8V5.8C73.9 2.6 71.4 0 68.2 0zm4.2 18.2c0 2.3-1.9 4.2-4.2 4.2H55.8c-2.3 0-4.2-1.9-4.2-4.2V5.8c0-2.3 1.9-4.2 4.2-4.2h12.4c2.3 0 4.2 1.9 4.2 4.2v12.4zM43.2 0H30.8C27.6 0 25 2.6 25 5.8v12.5c0 3.2 2.6 5.8 5.8 5.8h12.4c3.2 0 5.8-2.6 5.8-5.8V5.8C48.9 2.6 46.4 0 43.2 0zm4.2 18.2c0 2.3-1.9 4.2-4.2 4.2H30.8c-2.3 0-4.2-1.9-4.2-4.2V5.8c0-2.3 1.9-4.2 4.2-4.2h12.4c2.3 0 4.2 1.9 4.2 4.2v12.4zM93.2 0H80.8C77.6 0 75 2.6 75 5.8v12.5c0 3.2 2.6 5.8 5.8 5.8h12.4c3.2 0 5.8-2.6 5.8-5.8V5.8C98.9 2.6 96.4 0 93.2 0zm4.2 18.2c0 2.3-1.9 4.2-4.2 4.2H80.8c-2.3 0-4.2-1.9-4.2-4.2V5.8c0-2.3 1.9-4.2 4.2-4.2h12.4c2.3 0 4.2 1.9 4.2 4.2v12.4z"/><path class="ccst0" d="M12 5c-1.7 0-3 .6-3.8 1.7S7 9.6 7 12c0 2.3.4 4 1.3 5.2.8 1.2 2.1 1.8 3.7 1.8 1.7 0 3-.6 3.8-1.7.8-1.1 1.2-2.9 1.2-5.3 0-2.3-.4-4-1.3-5.2C15 5.6 13.7 5 12 5zm1.6 10.6c-.3.7-.8 1.1-1.5 1.1s-1.2-.4-1.5-1.1c-.4-.7-.6-1.9-.6-3.6 0-1.7.2-2.9.5-3.6.3-.7.8-1.1 1.5-1.1s1.2.4 1.5 1.1c.3.7.5 1.9.5 3.6.1 1.7-.1 2.9-.4 3.6zm22.1.2l1.8-1.6c1.2-1 2-1.8 2.5-2.4.5-.6.8-1.1 1-1.6.2-.5.3-1.1.3-1.7 0-.7-.2-1.3-.6-1.8-.4-.5-.9-1-1.6-1.3-.5-.3-1.2-.4-2.1-.4-.7 0-1.3.1-1.8.2s-1 .3-1.5.5-1 .6-1.7 1.2l1.6 1.8c.6-.4 1.1-.8 1.6-1s1-.3 1.6-.3c.5 0 .9.1 1.2.4.3.3.5.6.5 1.2 0 .4-.1.7-.2 1-.1.3-.4.7-.7 1.1s-1 1.1-2 2.1L32 16.4v1.9h9.7V16h-6.1v-.2zM62.2 10c-.6 0-1.1 0-1.5.1l-.4.1.3-2.7h5.2V5h-8l-.6 7 1.2.6c.3-.1.6-.1 1-.2s.8-.1 1.2-.1c2 0 2.9.7 2.9 2.1 0 1.5-.9 2.2-2.8 2.2-.6 0-1.3-.1-2-.3s-1.2-.3-1.7-.6v2.5c1 .5 2.3.7 4 .7 1.9 0 3.3-.4 4.3-1.2 1-.8 1.5-2 1.5-3.6 0-1.3-.4-2.3-1.3-3.1s-1.9-1-3.3-1zM81 18.6h7.7L87 22.1h3.2l2-4.2V16H81zm2.5-8.3c.8.5 1.8.7 2.9.7 1.6 0 2.8-.4 3.7-1.3.9-.9 1.3-2 1.3-3.5 0-1.4-.4-2.5-1.1-3.2-.4-.4-.9-.7-1.5-.9h-3.2c-.6.2-1.2.6-1.6 1.3h-.1c0-.5.1-1 .2-1.4h-2.8c-.2.9-.3 1.8-.3 2.9 0 1.3.2 2.4.7 3.3.4.9 1 1.6 1.8 2.1zm1.4-5.7c.4-.4 1-.6 1.6-.6.7 0 1.2.2 1.5.6.3.4.5.9.5 1.6.1.8-.1 1.4-.5 1.8-.4.4-.9.6-1.5.6s-1.2-.3-1.6-.8c-.4-.5-.6-1.2-.6-1.9 0-.4.2-.9.6-1.3z"/></symbol><symbol viewBox="0 0 512 512" id="like" xmlns="http://www.w3.org/2000/svg"><path d="M304.2 511.5c-145.2 0-146.3-6-164.3-19.6-9.5-7.2-27.5-12.1-93.3-16.4-4.8-.3-9.3-2.1-12.3-5.8C32.9 468 0 420.1 0 343.4c0-75.6 23.5-110.1 24.5-111.7 2.9-4.7 8-7.5 13.5-7.5 54 0 128.8-68.9 179.1-189.2C225.8 14.2 227.6.5 259.6.5c18.2 0 38.6 13 48.6 29.7 20.6 34.1 10.1 107.4.5 146.5 32.9-.3 92.6-.7 121-.7 39.5 0 65.6 23.5 66.4 57.9.3 11.3-1.2 25.9-4.5 33.4 8.7 8.7 19.9 21.7 20.4 38.6.6 21.7-13.6 38.3-22.7 47.8 2.1 6.3 6.3 14.7 5.8 24.7-1 24.6-20 40.5-31.9 48.8 1 6.7 1.7 19.5-.4 29.3-8.5 39.3-66.1 55.1-158.6 55zM55.1 443.2c57.3 4.7 87.9 11.2 104 23.3 12.5 9.4 10.6 13.1 145.1 13.1 41 0 121.3-1.7 127.4-29.9 2.5-11.3-9.4-22.3-9.5-22.4-3.2-8 .4-17.4 8.3-20.9.1 0 32-11.5 32.8-29.3.5-11.4-7.4-18.2-7.5-18.5-4.6-7.2-3-17.1 4.1-22 .1 0 20.8-12.6 20.2-29.7-.4-13.6-18.2-23.1-18.8-23.4-4-2.3-6.9-6.2-7.8-10.8-.9-4.6.1-9.3 2.9-12.9 0 0 8.1-12.9 7.8-25-.6-25.9-28.5-26.7-34.4-26.7-40.3 0-143.8.4-143.8.4-5.6 0-10.4-2.6-13.4-7.1s-3.2-10-1.5-15.1c15.6-44.9 24.3-115.5 9.8-139.6-4.3-7.1-5.2-14.2-21.2-14.2-2.2 0-7.5 1.7-13 14.9C193.2 175.1 113.5 249 48.2 255.6 42.6 268.4 32 295.1 32 343.4c-.1 49.3 15.6 87.4 23.1 99.8z"/></symbol><symbol viewBox="0 0 64 64" id="location" xmlns="http://www.w3.org/2000/svg"><defs><style>.cecls-1{fill:#959290}</style></defs><title>location</title><path class="cecls-1" d="M30 63.36l-1.61-2.17C27.56 60.07 8 33.57 8 22a22 22 0 0 1 44 0c0 11.57-19.56 38.07-20.39 39.19zM30 4a18 18 0 0 0-18 18c0 7.78 11.8 25.91 18 34.6 6.2-8.69 18-26.83 18-34.6A18 18 0 0 0 30 4zm0 30a12 12 0 1 1 12-12 12 12 0 0 1-12 12zm0-20a8 8 0 1 0 8 8 8 8 0 0 0-8-8z" id="ceCapa_4" data-name="Capa 4"/></symbol><symbol viewBox="0 0 64 64" id="lock" xmlns="http://www.w3.org/2000/svg"><defs><style>.cfcls-1{fill:#959290}</style></defs><title>lock</title><path class="cfcls-1" d="M46 64H18A12 12 0 0 1 6 52V30a6 6 0 0 1 6-6v-4a20 20 0 0 1 40 0v4a6 6 0 0 1 6 6v22a12 12 0 0 1-12 12zM12 28a2 2 0 0 0-2 2v22a8 8 0 0 0 8 8h28a8 8 0 0 0 8-8V30a2 2 0 0 0-2-2zm32-4h4v-4a16 16 0 0 0-32 0v4h4v-4a12 12 0 0 1 24 0zm-20 0h16v-4a8 8 0 0 0-16 0zm8 30a4.6 4.6 0 0 1-4.56-5.25l.61-4.25a6 6 0 0 1-1.89-5.89 6 6 0 0 1 4.44-4.45A6 6 0 0 1 38 40a6 6 0 0 1-2.05 4.5l.61 4.25A4.6 4.6 0 0 1 32 54zm0-8.86l-.6 4.17a.6.6 0 1 0 1.19 0zM32 38a2.23 2.23 0 0 0-.5.06 2 2 0 0 0-.39 3.71l.89.45.89-.45A2 2 0 0 0 32 38z" id="cfCapa_4" data-name="Capa 4"/></symbol><symbol viewBox="0 0 64 64" id="logout" xmlns="http://www.w3.org/2000/svg"><defs><style>.cgcls-1{fill:#959290}</style></defs><title>logout</title><path class="cgcls-1" d="M36 64H6a6 6 0 0 1-6-6V6a6 6 0 0 1 6-6h30a6 6 0 0 1 6 6v14a2 2 0 0 1-4 0V6a2 2 0 0 0-2-2H6a2 2 0 0 0-2 2v52a2 2 0 0 0 2 2h30a2 2 0 0 0 2-2V44a2 2 0 0 1 4 0v14a6 6 0 0 1-6 6zm12-18a2 2 0 0 1-1.41-3.41L55.17 34H22a2 2 0 0 1 0-4h33.17l-8.59-8.59a2 2 0 0 1 2.83-2.83l12 12L62.83 32l-1.41 1.41-12 12A2 2 0 0 1 48 46z" id="cgCapa_4" data-name="Capa 4"/></symbol><symbol viewBox="0 0 64 64" id="loop" xmlns="http://www.w3.org/2000/svg"><defs><style>.chcls-1{fill:#959290}</style></defs><title>loop</title><path class="chcls-1" d="M20 64a2 2 0 0 1-1.2-3.6l4.45-3.34A26.1 26.1 0 0 1 21.33 7.3a2 2 0 1 1 1.33 3.77 22.1 22.1 0 0 0 .48 41.79L20.4 49.2a2 2 0 0 1 3.2-2.4l5.62 7.49a2 2 0 0 1 .65.86l.93 1.24-9.6 7.21a2 2 0 0 1-1.2.4zm22-7.31a2 2 0 0 1-.67-3.89 22.1 22.1 0 0 0-.6-41.8l2.87 3.8a2 2 0 0 1-3.2 2.4l-7.2-9.58 1.44-1.08a2 2 0 0 1 .36-.25L42.8.4a2 2 0 0 1 2.4 3.2l-4.32 3.25a26.1 26.1 0 0 1 1.79 49.73 2 2 0 0 1-.67.11z" id="chCapa_3" data-name="Capa 3"/></symbol><symbol viewBox="0 0 64 64" id="mail" xmlns="http://www.w3.org/2000/svg"><defs><style>.cicls-1{fill:#959290}</style></defs><title>mail</title><path class="cicls-1" d="M58 54H6a6 6 0 0 1-6-6V16a6 6 0 0 1 6-6h52a6 6 0 0 1 6 6v32a6 6 0 0 1-6 6zM4 17.42V48a2 2 0 0 0 2 2h52a2 2 0 0 0 2-2V17.42L32 40.6zM6.14 14L32 35.4 57.86 14z" id="ciCapa_4" data-name="Capa 4"/></symbol><symbol viewBox="0 0 296 296" id="mantenimiento" xmlns="http://www.w3.org/2000/svg"><path d="M277.004 104.761a18.12 18.12 0 0 0-12.89 5.338l-26.019 26.024V14.287C238.095 6.41 231.686 0 223.81 0H14.286C6.409 0 0 6.41 0 14.286v266.667c0 7.876 6.41 14.286 14.286 14.286H223.81c7.876 0 14.286-6.41 14.286-14.286v-93.267l51.8-51.805c3.447-3.438 5.342-8.014 5.342-12.891 0-10.048-8.176-18.229-18.234-18.229zm-48.432 176.191a4.768 4.768 0 0 1-4.763 4.762H14.286a4.766 4.766 0 0 1-4.762-4.762V14.286a4.766 4.766 0 0 1 4.762-4.762H223.81a4.766 4.766 0 0 1 4.762 4.762v131.362l-66.667 66.667-6.733 6.733-1.395 1.395-.648.648-19.338 45.124 45.119-19.338 49.662-49.667v83.742zm-60.724-39.704l-15.924 6.824 6.824-15.924 9.1 9.1zm8.342-5.124l-12.314-12.314 83.743-83.743 12.314 12.314-83.743 83.743zm106.971-106.976l-16.495 16.5-12.314-12.314 16.495-16.495a8.647 8.647 0 0 1 6.157-2.552c4.805 0 8.71 3.905 8.71 8.705a8.76 8.76 0 0 1-2.553 6.156zM69.329 188h-.001v33.333H35.999V188h33.33zm-9.523 23.81v-14.286H45.522v14.286h14.284zM85.726 190h98.498l-9.53 9.524H86L85.726 190zm.273 19h79.207l-9.531 9.524H85.999V209zm-16.67 27h-.001v33.333H35.999V236h33.33zm-9.523 23.81v-14.286H45.522v14.286h14.284zm149.717 6.857h9.524v9.524h-9.524v-9.524zm-19.047 0H200v9.524h-9.524v-9.524zm-171.429 0h9.524v9.524h-9.524v-9.524zM69.329 45h-.001v33.333H35.999V45h33.33zm-9.523 23.81V54.524H45.522V68.81h14.284zM86 47h105.363v9.524H86V47zm0 19h124.196v9.524H85.999V66zM69.33 93h-.001v33.333h-33.33V93h33.33zm-9.523 23.81v-14.286H45.522v14.286h14.284zM86 95h124.196v9.524H85.999V95zm0 19h124.196v9.524H85.999V114zm-16.67 27h-.001v33.333h-33.33V141h33.33zm-9.523 23.81v-14.286H45.522v14.286h14.284zM86 143h124.196v9.524H85.999V143zm.093 19h126.14l-9.542 9.524H85.999l.093-9.524zm-1.213 76h61l-4.078 9.524H86L84.879 238zM86 257h51.744l-4.072 9.524H86V257z"/></symbol><symbol viewBox="0 0 64 64" id="max-par" xmlns="http://www.w3.org/2000/svg"><defs><style>.ckcls-1{fill:#959290}</style></defs><title>max-par</title><path class="ckcls-1" d="M22 64a2 2 0 0 1-1.2-3.6l4-3A29 29 0 1 1 45 54.42a2 2 0 0 1-2-3.51 25 25 0 1 0-17.47 2.51L22.4 49.2a2 2 0 0 1 3.2-2.4l6.05 8c.12.16.35.34.35.53v.78a2 2 0 0 1-.76 1.41h-.07l-8 6A2 2 0 0 1 22 64zm12-20.16A2 2 0 0 1 32 42a2 2 0 0 1-2.26 1.82 16 16 0 0 1-7.32-3 2 2 0 0 1-.32-2.9 2 2 0 0 1-2.89-.31 16 16 0 0 1-3-7.32A2 2 0 0 1 18 28a2 2 0 0 1-1.82-2.26 16 16 0 0 1 3-7.32 2 2 0 0 1 2.9-.32 2 2 0 0 1 .31-2.88 16 16 0 0 1 7.32-3A2 2 0 0 1 32 14a2 2 0 0 1 2.26-1.82 16 16 0 0 1 7.32 3 2 2 0 0 1 .32 2.9 2 2 0 0 1 2.88.31 16 16 0 0 1 3 7.32A2 2 0 0 1 46 28a2 2 0 0 1 1.78 2.26 16 16 0 0 1-3 7.32 2 2 0 0 1-2.9.32 2 2 0 0 1-.31 2.88 16 16 0 0 1-7.32 3zm-7.93-5.44a12 12 0 0 0 2.79 1.16 4 4 0 0 1 6.31 0 12 12 0 0 0 2.79-1.16 4 4 0 0 1 4.46-4.46 12 12 0 0 0 1.16-2.79 4 4 0 0 1 0-6.31 12 12 0 0 0-1.16-2.79 4 4 0 0 1-4.46-4.46 12 12 0 0 0-2.79-1.16 4 4 0 0 1-6.31 0 12 12 0 0 0-2.79 1.16 4 4 0 0 1-4.46 4.46 12 12 0 0 0-1.16 2.79 4 4 0 0 1 0 6.31 12 12 0 0 0 1.16 2.79 4 4 0 0 1 4.46 4.46zM46 28zm-14 6a6 6 0 1 1 6-6 6 6 0 0 1-6 6zm0-8a2 2 0 1 0 2 2 2 2 0 0 0-2-2z" id="ckCapa_3" data-name="Capa 3"/></symbol><symbol viewBox="0 0 64 64" id="max-speed" xmlns="http://www.w3.org/2000/svg"><defs><style>.clcls-1{fill:#959290}</style></defs><title>max-speed</title><path class="clcls-1" d="M52 56.35a2 2 0 0 1-1.33-3.49A28 28 0 1 0 4 32a27.47 27.47 0 0 0 9.33 20.69 2 2 0 1 1-2.67 3A31.43 31.43 0 0 1 0 32a32 32 0 1 1 53.33 23.85 2 2 0 0 1-1.33.5zM32 54a22 22 0 0 1 0-44 21.69 21.69 0 0 1 9.12 2 2 2 0 1 1-1.67 3.63A17.71 17.71 0 0 0 32 14a18 18 0 1 0 18 18 17.72 17.72 0 0 0-1.64-7.45A2 2 0 1 1 52 22.88 21.69 21.69 0 0 1 54 32a22 22 0 0 1-22 22zm0-14a8 8 0 1 1 4.06-14.89l8.52-8.52a2 2 0 0 1 2.83 2.83l-8.52 8.52A8 8 0 0 1 32 40zm0-12a4 4 0 1 0 3 1.36l-.19-.17-.17-.19A4 4 0 0 0 32 28z" id="clCapa_3" data-name="Capa 3"/></symbol><symbol id="menu" viewBox="0 0 64 64" xmlns="http://www.w3.org/2000/svg"><defs><style>.cmcls-1{fill:#959290}</style></defs><title>menu</title><path class="cmcls-1" d="M62 50H2a2 2 0 0 1 0-4h60a2 2 0 0 1 0 4zm0-16H2a2 2 0 0 1 0-4h60a2 2 0 0 1 0 4zm0-16H2a2 2 0 0 1 0-4h60a2 2 0 0 1 0 4z"/></symbol><symbol viewBox="0 0 64 64" id="minus" xmlns="http://www.w3.org/2000/svg"><title>minus</title><g fill-rule="evenodd"><path d="M32 64c17.673 0 32-14.327 32-32C64 14.327 49.673 0 32 0 14.327 0 0 14.327 0 32c0 17.673 14.327 32 32 32zm0-4C16.536 60 4 47.464 4 32S16.536 4 32 4s28 12.536 28 28-12.536 28-28 28z"/><path d="M18 34h28a2 2 0 1 0 0-4H18a2 2 0 1 0 0 4z"/><path d="M18 32.5h28a.5.5 0 1 0 0-1H18a.5.5 0 1 0 0 1z"/></g></symbol><symbol id="news" viewBox="0 0 64 64" xmlns="http://www.w3.org/2000/svg"><defs><style>.cocls-1{fill:#959290}</style></defs><title>news</title><path class="cocls-1" d="M54 64H10V0h18.83l.58.58 24 24 .58.58zm-40-4h36V28H26V4H14zm16-36h17.17L30 6.83z"/></symbol><symbol viewBox="0 0 64 64" id="ok" xmlns="http://www.w3.org/2000/svg"><defs><style>.cpcls-1{fill:#959290}</style></defs><title>ok</title><path class="cpcls-1" d="M32 64a32 32 0 1 1 32-32 32 32 0 0 1-32 32zm0-60a28 28 0 1 0 28 28A28 28 0 0 0 32 4zm-6 40.83L14.59 33.41a2 2 0 0 1 2.83-2.83L26 39.17l18.59-18.58a2 2 0 0 1 2.83 2.83z" id="cpCapa_4" data-name="Capa 4"/></symbol><symbol viewBox="0 0 64 64" id="phone" xmlns="http://www.w3.org/2000/svg"><defs><style>.cqcls-1{fill:#959290}</style></defs><title>phone</title><path class="cqcls-1" d="M11.7 62.92a6 6 0 0 1-4.23-1.76l-4.32-4.32A10 10 0 0 1 1 46 83.34 83.34 0 0 1 46 1a10 10 0 0 1 10.89 2.1L61 7.2a6 6 0 0 1-.9 9.23l-10.52 7a7 7 0 0 1-7.34.28L37 20.81a93.08 93.08 0 0 0-16.8 16.78l3.06 4.59a7 7 0 0 1 .08 7.65l-6.57 10.31a6 6 0 0 1-5.07 2.77zM49.82 4.17a6 6 0 0 0-2.29.46A79.31 79.31 0 0 0 4.67 47.48 6 6 0 0 0 6 54l4.32 4.32a2 2 0 0 0 3.1-.34L20 47.67a3 3 0 0 0 0-3.28l-4.63-6.95.85-1.13a97.09 97.09 0 0 1 19.35-19.43l1-.79 1.22.59 6.35 3.59a3 3 0 0 0 3.14-.12l10.52-7a2 2 0 0 0 .3-3.08L54 5.97a6 6 0 0 0-4.18-1.8z" id="cqCapa_4" data-name="Capa 4"/></symbol><symbol viewBox="0 0 64 64" id="phone2" xmlns="http://www.w3.org/2000/svg"><defs><style>.crcls-1{fill:#959290}</style></defs><title>phone2</title><path class="crcls-1" d="M49.82 62.92a10 10 0 0 1-3.82-.76 83.34 83.34 0 0 1-45-45A10 10 0 0 1 3.15 6.25l4.32-4.32a6 6 0 0 1 9.3 1l6.58 10.32a7 7 0 0 1-.08 7.65l-3.06 4.6A93.07 93.07 0 0 0 37 42.28l5.21-2.94a7 7 0 0 1 7.34.28l10.52 7a6 6 0 0 1 .93 9.27L56.89 60a10 10 0 0 1-7.07 2.92zM11.71 4.17a2 2 0 0 0-1.41.59L6 9.08a6 6 0 0 0-1.3 6.53 79.31 79.31 0 0 0 42.83 42.85 6 6 0 0 0 6.53-1.3l4.1-4.1a2 2 0 0 0-.3-3.08l-10.52-7a3 3 0 0 0-3.14-.12L36.7 47l-1.13-.84a97.09 97.09 0 0 1-19.41-19.39l-.85-1.13 4.63-6.95a3 3 0 0 0 0-3.28L13.39 5.09a2 2 0 0 0-1.47-.91zM42 23.8a2 2 0 0 1-1.41-3.41L57 4h-9a2 2 0 0 1 0-4h16v16a2 2 0 0 1-4 0V6.63L43.41 23.21a2 2 0 0 1-1.41.59z" id="crCapa_4" data-name="Capa 4"/></symbol><symbol id="play" viewBox="0 0 64 64" xmlns="http://www.w3.org/2000/svg"><style>.csst0{fill:#959290}</style><title>close2</title><path class="csst0" d="M32 64C14.3 64 0 49.7 0 32S14.3 0 32 0s32 14.3 32 32-14.3 32-32 32zm0-60C16.5 4 4 16.5 4 32s12.5 28 28 28 28-12.5 28-28S47.5 4 32 4z"/><path class="csst0" d="M26 46.9V17.1L44 32z"/></symbol><symbol viewBox="0 0 64 64" id="plus" xmlns="http://www.w3.org/2000/svg"><title>plus</title><g fill-rule="evenodd"><path d="M32 64c17.673 0 32-14.327 32-32C64 14.327 49.673 0 32 0 14.327 0 0 14.327 0 32c0 17.673 14.327 32 32 32zm0-4C16.536 60 4 47.464 4 32S16.536 4 32 4s28 12.536 28 28-12.536 28-28 28z"/><path d="M18 34h28a2 2 0 1 0 0-4H18a2 2 0 1 0 0 4z"/><path d="M18 32.5h28a.5.5 0 1 0 0-1H18a.5.5 0 1 0 0 1z"/><path d="M30 18v28a2 2 0 1 0 4 0V18a2 2 0 1 0-4 0z"/><path d="M31.5 18v28a.5.5 0 1 0 1 0V18a.5.5 0 1 0-1 0z"/></g></symbol><symbol viewBox="0 0 64 64" id="refresh" xmlns="http://www.w3.org/2000/svg"><defs><style>.cucls-1{fill:#959290}</style></defs><title>refresh</title><path class="cucls-1" d="M22 64a2 2 0 0 1-1.2-3.6l4-3A29 29 0 1 1 45 54.42a2 2 0 1 1-2-3.51 25 25 0 1 0-17.46 2.51L22.4 49.2a2 2 0 0 1 3.2-2.4l6 8 1.19 1.58-1.59 1.19-8 6A2 2 0 0 1 22 64z" id="cuCapa_3" data-name="Capa 3"/></symbol><symbol id="repair" viewBox="0 0 70 50" xmlns="http://www.w3.org/2000/svg"><style>.cvst0{fill:#4a4a4a}</style><title>Revision</title><path class="cvst0" d="M24.7 20.4c0-1-.5-1.9-1.2-2.3-.6-.5-1.2-.6-1.8-.6h-3.6c-.4 0-1.5-.5-1.7-.8-.5-.7-.7-1-.7-1.3-.1-.7-.2-1.6-.5-2.5-.3-.9-.8-1.9-1.8-2.5L12 9.5c-.9-.5-1.9-.7-2.8-.4-.9.2-1.6.8-2 1.5l-5.9 9.2C.4 21.1 0 22.7 0 24.2v24.9c0 .6.5 1.2 1.2 1.2h4.7c.6 0 1.1-.5 1.2-1.1l1.1-20.5c.1-.9.3-1.8.9-2.6l2.9-4.4 1 1c.4.4 1 .7 1.7.7h7.2c1.5 0 2.8-1.4 2.8-3zM13.6 20c-1-1-2.8-.9-3.6.4l-3 4.4c-.7 1.1-1.2 2.4-1.3 3.8L4.8 48H2.3V24.2c0-1.1.3-2.2.9-3.1l5.9-9.2c.2-.3.4-.5.7-.5.3-.1.5-.1.9.2l1.5.9c.3.2.6.5.8 1.1.2.6.3 1.4.4 2.1.1.9.6 1.6 1.1 2.4.9 1.2 2.2 1.8 3.6 1.8h3.6c-.1 0 .2 0 .3.1.1.1.2.2.2.5s-.2.6-.6.6h-7.2l-.8-1.1z"/><path class="cvst0" d="M62.7 11.3h5.9c.7 0 1.2-.5 1.2-1.2s-.5-1.2-1.2-1.2h-5.9c-2.7 0-5.2 1-7.2 2.8l-9.9 9.1c-.7.7-1.5 1.2-2.4 1.6l-13.8-16c-.2-.3-.5-.4-.9-.4h-2.4c-.6 0-1.1.5-1.1 1.2 0 .6.5 1.2 1.2 1.2H28l6 7v8.1l-7.9.4c-4.6.2-8.2 4-8.2 8.5v6.1c-1.1.5-1.9 1.7-1.9 3 0 .3.1.6.3.8.4 1.5 1.6 2.7 3.2 2.7h4.7c.6 0 1.2-.5 1.2-1.2 0-.6-.5-1.2-1.2-1.2h-4.7c-.7 0-1.2-.5-1.2-1.2 0-.4.2-.8.6-1h.2c.2 0 .4-.1.6-.2H23c.7 0 1.2-.5 1.2-1.2s-.5-1.2-1.2-1.2h-2.8v-5.6c0-3.3 2.6-6 5.9-6.2l14-.7c2.6-.1 5.1-1.2 7.1-3l9.9-9.1c1.5-1.1 3.5-1.9 5.6-1.9zM40 23.2l-3.7.2v-5.3l4.4 5.1c-.2-.1-.4 0-.7 0z"/><path class="cvst0" d="M68.8 16.3c.7 0 1.2-.5 1.2-1.2s-.5-1.2-1.2-1.2h-7.3c-.9 0-1.8.4-2.5 1l-8.7 8.7c-.2.2-.3.5-.3.8 0 .6.5 1.2 1.2 1.2h17.6c.7 0 1.2-.5 1.2-1.2 0-.6-.5-1.2-1.2-1.2h-5.9v-7h5.9zm-14.8 7l6.5-6.5v6.5H54zM67.9 30c.7 0 1.2-.5 1.2-1.2s-.5-1.2-1.2-1.2h-3.5c-.6 0-1.2.5-1.2 1.2 0 .6.5 1.2 1.2 1.2h3.5zm-31.5 1c-5.2 0-9.4 4.2-9.4 9.4s4.2 9.4 9.4 9.4 9.4-4.2 9.4-9.4-4.2-9.4-9.4-9.4zm0 16.4c-3.9 0-7.1-3.1-7.1-7s3.1-7 7.1-7c3.9 0 7.1 3.1 7.1 7s-3.2 7-7.1 7z"/><path class="cvst0" d="M36.7 36c-2.6 0-4.7 2.1-4.7 4.7s2.1 4.7 4.7 4.7 4.7-2.1 4.7-4.7-2.1-4.7-4.7-4.7zm0 7c-1.3 0-2.4-1-2.4-2.3 0-1.3 1-2.3 2.4-2.3s2.4 1 2.4 2.3c0 1.3-1.1 2.3-2.4 2.3zm32.1.4H48.6c-.6 0-1.2.5-1.2 1.2 0 .6.5 1.2 1.2 1.2h20.1c.7 0 1.2-.5 1.2-1.2.1-.7-.5-1.2-1.1-1.2zm-15.2-4.9c-.6 0-1.2.5-1.2 1.2 0 .6.5 1.2 1.2 1.2h15.3c.7 0 1.2-.5 1.2-1.2s-.5-1.2-1.2-1.2H53.6zM16.7 10.4c2.6 0 4.7-2.1 4.7-4.7S19.3 1 16.7 1 12 3.1 12 5.7s2.1 4.7 4.7 4.7zm0-7.1c1.3 0 2.4 1 2.4 2.3C19.1 7 18 8 16.7 8s-2.4-1-2.4-2.3c0-1.3 1.1-2.4 2.4-2.4z"/></symbol><symbol viewBox="0 0 64 64" id="search" xmlns="http://www.w3.org/2000/svg"><defs><style>.cwcls-1{fill:#959290}</style></defs><title>search</title><path class="cwcls-1" d="M56.49 62.49a6 6 0 0 1-4.24-1.76l-9.9-9.9a4 4 0 0 1 0-5.66L41.2 44a25 25 0 1 1 2.8-2.8l1.14 1.14a4.09 4.09 0 0 1 5.66 0l9.9 9.9a6 6 0 0 1 0 8.48 6 6 0 0 1-4.21 1.77zm-10-15.84L45.17 48l9.9 9.9a2 2 0 0 0 2.83 0 2 2 0 0 0 0-2.83l-9.9-9.9-1.36 1.36-.05.06zM25 4a21 21 0 1 0 21 21A21 21 0 0 0 25 4zm0 38a17 17 0 1 1 17-17 17 17 0 0 1-17 17zm0-30a13 13 0 1 0 13 13 13 13 0 0 0-13-13zm6.93 14.93a2 2 0 0 1-2-2 5 5 0 0 0-5-5 2 2 0 0 1 0-4 9 9 0 0 1 9 9 2 2 0 0 1-2 2z" id="cwCapa_4" data-name="Capa 4"/></symbol><symbol viewBox="0 0 64 64" id="settings" xmlns="http://www.w3.org/2000/svg"><defs><style>.cxcls-1{fill:#959290}</style></defs><title>settings</title><path class="cxcls-1" d="M55.36 64a8.61 8.61 0 0 1-6.1-2.52l-28-28a17.17 17.17 0 0 1-3.8.51A16.92 16.92 0 0 1 5 29a17.13 17.13 0 0 1-5-12c0-3.48 1.84-4.56 2.63-4.87A4 4 0 0 1 7 13.32l6.56 6.41 4.65-1.47 1.2-5.07-5.86-6.49a4 4 0 0 1-.71-4.24A4 4 0 0 1 16.34 0a17 17 0 0 1 17 21.85l28.07 27.3a8.63 8.63 0 0 1-6 14.83zM25.29 31.87l26.8 26.77a4.64 4.64 0 1 0 6.5-6.64l-27-26.26a16.71 16.71 0 0 1-2 2.66 17.13 17.13 0 0 1-4.3 3.47zM4.09 16.09A3.9 3.9 0 0 0 4 17a13.11 13.11 0 0 0 3.85 9.19A12.88 12.88 0 0 0 17.34 30a13.06 13.06 0 0 0 3.66-.62l.31-.11a13 13 0 0 0 5.33-3.54 12.77 12.77 0 0 0 2.41-3.83 2 2 0 0 1 .16-.41A13 13 0 0 0 16.51 4l7.26 8.06-2.21 9.32-9.09 2.88z" id="cxCapa_4" data-name="Capa 4"/></symbol><symbol viewBox="0 0 64 64" id="share" xmlns="http://www.w3.org/2000/svg"><defs><style>.cycls-1{fill:#959290}</style></defs><title>share</title><path class="cycls-1" d="M58 64H6a6 6 0 0 1-6-6V24a6 6 0 0 1 6-6h12a2 2 0 0 1 0 4H6a2 2 0 0 0-2 2v34a2 2 0 0 0 2 2h52a2 2 0 0 0 2-2V30a2 2 0 0 1 4 0v28a6 6 0 0 1-6 6zM17.86 46.38a2 2 0 0 1-2-2.42 41 41 0 0 1 39.77-32.28h.85l-7-8.41A2 2 0 1 1 52.54.72L63.6 14 52.54 27.28a2 2 0 0 1-3.07-2.56l7.51-9A36.9 36.9 0 0 0 19.81 44.8a2 2 0 0 1-1.95 1.58z" id="cyCapa_4" data-name="Capa 4"/></symbol><symbol viewBox="0 0 64 64" id="share2" xmlns="http://www.w3.org/2000/svg"><defs><style>.czcls-1{fill:#959290}</style></defs><title>share2</title><path class="czcls-1" d="M52 64a12 12 0 0 1-11.64-14.9l-19.8-8.69a12 12 0 1 1 0-16.83l19.81-8.69A12 12 0 1 1 42 18.55l-19.13 8.37a12 12 0 0 1 0 10.14L42 45.43A12 12 0 1 1 52 64zm0-20a8 8 0 1 0 8 8 8 8 0 0 0-8-8zM12 24a8 8 0 1 0 8 8 8 8 0 0 0-8-8zM52 4a8 8 0 1 0 8 8 8 8 0 0 0-8-8z" id="czCapa_4" data-name="Capa 4"/></symbol><symbol id="shopping-cart" viewBox="0 0 64 64" xmlns="http://www.w3.org/2000/svg"><style>.dast0{fill:#979797}</style><title>shopping-cart</title><path class="dast0" d="M58 14H11.8L9.9 6.4l-.2-.9-.8-.4-6-2.9c-1-.5-2.2-.1-2.7.9s-.1 2.2.9 2.7l5.2 2.5L8 15.6v.4c0 .5.2.9.4 1.2L11 27.8v.2c0 1 .1 1.4.4 1.7l2 8.3H12c-3.3 0-6 2.7-6 6 0 2.9 2 5.3 4.7 5.9-.5.9-.7 2-.7 3.1 0 3.9 3.1 7 7 7s7-3.1 7-7c0-1.1-.2-2.1-.7-3h21.4c-.4.9-.7 1.9-.7 3 0 3.9 3.1 7 7 7s7-3.1 7-7c0-3.5-2.6-6.4-6-6.9V46H12c-1.1 0-2-.9-2-2s.9-2 2-2h38c5.4 0 10.4-4.2 11.3-9.6l.4-2.5h.3v-1.8l1.3-7.9c.6-3.3-1.9-6.2-5.3-6.2zM20 53c0 1.7-1.3 3-3 3s-3-1.3-3-3 1.3-3 3-3 3 1.3 3 3zm34 0c0 1.7-1.3 3-3 3s-3-1.3-3-3 1.3-3 3-3 3 1.3 3 3zm-4-15h-4.5l1.3-7.9h1.1c3 0 6-.1 8.7-.1h1.1l-.3 1.8c-.6 3.4-4 6.2-7.4 6.2zm-17.7 0l-1.9-7.8h12.2L41.5 38h-9.2zM58 18c1 0 1.5.7 1.4 1.6L58.3 26h-1.8c-2.7 0-5.7.1-8.7.1h-.4l1.3-8.1H58zm-13.3 0l-1.3 8.1H29.5l-2-8.2h17.2zm-19.3 8.2h-5c-2.3 0-4.1 0-5.3-.1H15V26h-.3l-1.9-8h10.7l1.9 8.2zm-5.1 4h6l1.9 7.8H17.5l-1.9-7.8h4.7z"/></symbol><symbol viewBox="0 0 64 64" id="sort" xmlns="http://www.w3.org/2000/svg"><title>sort</title><path d="M54 18a2 2 0 1 0 0-4H10a2 2 0 1 0 0 4h44zM36 34a2 2 0 1 0 0-4H10a2 2 0 1 0 0 4h26zM22 50a2 2 0 1 0 0-4H10a2 2 0 1 0 0 4h12z" fill-rule="evenodd"/></symbol><symbol viewBox="0 0 64 64" id="star" xmlns="http://www.w3.org/2000/svg"><defs><style>.dccls-1{fill:#959290}</style></defs><title>star</title><path class="dccls-1" d="M13.91 62.45a3 3 0 0 1-2.85-4l6.6-19.79L3.07 27.37A3 3 0 0 1 4.91 22H22.6l6.58-18.1a3 3 0 0 1 5.64 0L41.4 22h17.69a3 3 0 0 1 1.84 5.37L46.26 38.78l5 19.92a3 3 0 0 1-4.75 3.1L31.94 50.49 15.63 61.9a3 3 0 0 1-1.72.55zM7.83 26l14.51 11.29-6.53 19.6 16.25-11.38 14.59 11.35-4.91-19.64L56.17 26H38.6L32 7.85 25.4 26z" id="dcCapa_3" data-name="Capa 3"/></symbol><symbol viewBox="0 0 64 64" id="star-empty" xmlns="http://www.w3.org/2000/svg"><title>star-empty</title><path d="M29.222 3.913l-7.1 19.4L24 22H4.9c-2.922 0-4.138 3.647-1.8 5.4l15.673 12.18-.671-2.21-7 21.1c-.914 2.74 2.214 5.118 4.598 3.33l17.444-12.16-2.371-.06 15.7 12.2c2.302 1.727 5.385-.289 4.78-3.014L45.94 37.515l-.713 2.064 15.7-12.2C63.247 25.64 61.912 22 59.1 22H40l1.878 1.313-7.1-19.4c-.888-2.669-4.668-2.669-5.575.055l.019-.055zm3.775 1.32c-.307.923-1.687.923-1.994 0l7.119 19.454.48 1.313H59.1c-.952 0-1.394-1.204-.6-1.8L42.773 36.42l-1.03.8.317 1.265 5.3 21.2c-.209-.936.832-1.616 1.54-1.085L33.227 46.42l-1.163-.903-1.208.842-17.5 12.2c.754-.567 1.845.262 1.541 1.173l7.001-21.102.445-1.342-1.116-.867-15.7-12.2c.71.532.295 1.779-.627 1.779h20.498l.48-1.313 7.1-19.4.02-.055z" fill-rule="evenodd"/></symbol><symbol viewBox="0 0 64 64" id="star-full" xmlns="http://www.w3.org/2000/svg"><defs><style>.decls-1{fill:#959290}</style></defs><title>star-full</title><g id="deCapa_3" data-name="Capa 3"><path class="decls-1" d="M32.94 4.58L40 24h19.09a1 1 0 0 1 .61 1.79L44 38l5.3 21.19a1 1 0 0 1-1.58 1L32 48 14.48 60.26A1 1 0 0 1 13 59.13L20 38 4.3 25.79A1 1 0 0 1 4.91 24H24l7.06-19.42a1 1 0 0 1 1.88 0z"/><path class="decls-1" d="M13.91 62.45a3 3 0 0 1-2.85-4l6.6-19.79L3.07 27.37A3 3 0 0 1 4.91 22H22.6l6.58-18.1a3 3 0 0 1 5.64 0L41.4 22h17.69a3 3 0 0 1 1.84 5.37L46.26 38.78l5 19.92a3 3 0 0 1-4.75 3.1L31.94 50.49 15.63 61.9a3 3 0 0 1-1.72.55zM7.83 26l14.51 11.29-6.53 19.6 16.25-11.38 14.59 11.35-4.91-19.64L56.17 26H38.6L32 7.85 25.4 26z"/></g></symbol><symbol viewBox="0 0 34 25" id="taxi" xmlns="http://www.w3.org/2000/svg"><title>taxi icon</title><path d="M10.306 9.815V6.507a.695.695 0 0 0-.174-.022H.002V5.372h10.13c.497 0 .976.177 1.326.492l4.643 4.115a.53.53 0 0 1 .185.395c0 .306-.284.554-.63.554H.002V9.815h10.304zm1.255 0h2.583l-2.583-2.293v2.293zm21.832 9.6a.62.62 0 0 1-.414.151h-8.154a.627.627 0 0 1-.62-.638.627.627 0 0 1 .635-.623h7.905v-3.303c0-.45-.089-.88-.25-1.273a.625.625 0 0 1-.049.002H30.57a.627.627 0 0 1-.62-.638.627.627 0 0 1 .634-.624h1.004a3.297 3.297 0 0 0-1.999-.794l-7.452-.357a5.998 5.998 0 0 1-3.78-1.59l-5.27-4.885a4.383 4.383 0 0 0-2.98-1.17H0V0h10.306v2.414c1.35.047 2.636.58 3.63 1.5l5.273 4.89a4.712 4.712 0 0 0 2.985 1.257l7.452.357c2.43.114 4.354 2.142 4.354 4.584v3.794a.626.626 0 0 1-.607.62zM7.495 12.037h1.874v1.852H7.495v-1.852zm-1.874 1.852h1.874v1.852H5.621v-1.852zm-1.874-1.852h1.874v1.852H3.747v-1.852zm-1.873 1.852h1.873v1.852H1.874v-1.852zM0 12.037h1.874v1.852H0v-1.852zm.007 5.998h7.905c1.033 0 1.696.852 1.696 1.89 0 .167.005.448 0 .448-.223.795-.838 1.442-1.696 1.442H.007v-1.262h7.905c.355 0 .63-.276.63-.628a.618.618 0 0 0-.63-.628H.007v-1.262zm22.073 2.88h9.6c.293.005.527.29.523.638-.004.348-.246.629-.54.624h-9.595c-.298-.005-.532-.29-.528-.638.004-.352.246-.628.54-.624zm-6.153-7.026c3.097 0 5.621 2.498 5.621 5.558 0 3.06-2.524 5.553-5.621 5.553-3.098 0-5.621-2.493-5.621-5.553s2.523-5.558 5.62-5.558zm0 .926c-2.596 0-4.685 2.064-4.685 4.63 0 2.565 2.089 4.63 4.685 4.63 2.596 0 4.684-2.065 4.684-4.63 0-2.566-2.088-4.63-4.684-4.63zm0 1.852c1.546 0 2.81 1.253 2.81 2.78 0 1.521-1.264 2.775-2.81 2.775s-2.81-1.254-2.81-2.775c0-1.527 1.264-2.78 2.81-2.78zm0 1.39a1.387 1.387 0 1 0 0 2.775 1.387 1.387 0 1 0 0-2.775z" fill-rule="evenodd"/></symbol><symbol viewBox="0 0 64 64" id="tech-data" xmlns="http://www.w3.org/2000/svg"><defs><style>.dgcls-1{fill:#959290}</style></defs><title>tech-data</title><path class="dgcls-1" d="M52 56.35a2 2 0 0 1-1.63-3.16l-2.81-2.81a2 2 0 0 1 2.83-2.83l2.77 2.77A28.06 28.06 0 0 0 56.81 45l-3.6-1.56a2 2 0 1 1 1.59-3.67l3.6 1.56A28 28 0 0 0 59.93 34H56a2 2 0 0 1 0-4h3.93a27.82 27.82 0 0 0-1.46-7.12l-3.61 1.54a2 2 0 0 1-1.57-3.68l3.61-1.54a28.09 28.09 0 0 0-3.74-5.52l-2.77 2.77a2 2 0 0 1-2.83-2.83l2.77-2.77a28.11 28.11 0 0 0-6.06-4l-1.47 3.62A2 2 0 0 1 39.09 9l1.47-3.65A27.85 27.85 0 0 0 34 4.07V8a2 2 0 0 1-4 0V4.07a27.8 27.8 0 0 0-7.12 1.46l1.54 3.62a2 2 0 1 1-3.68 1.57L19.2 7.1a28.09 28.09 0 0 0-5.52 3.75l2.77 2.77a2 2 0 0 1-2.83 2.83l-2.77-2.77A28.09 28.09 0 0 0 7.19 19l3.6 1.56a2 2 0 1 1-1.59 3.67L5.59 22.7A27.81 27.81 0 0 0 4.07 30H8a2 2 0 0 1 0 4H4.07a27.35 27.35 0 0 0 1.47 7.12l3.6-1.54a2 2 0 0 1 1.57 3.68l-3.58 1.53a27.87 27.87 0 0 0 3.78 5.47l2.7-2.7a2 2 0 0 1 2.83 2.83l-2.74 2.74a2 2 0 0 1-3 2.54A31.43 31.43 0 0 1 0 32a31.82 31.82 0 0 1 2.64-12.73A32.11 32.11 0 0 1 9.2 9.56l.17-.19.19-.17a32.09 32.09 0 0 1 9.86-6.63 32 32 0 0 1 35 6.64l.19.17.17.19a32.11 32.11 0 0 1 6.63 9.86 32 32 0 0 1 0 25.15l-.06.16-.07.15a32.05 32.05 0 0 1-6.54 9.61l-.1.11-.11.1q-.58.57-1.19 1.12a2 2 0 0 1-1.34.52zM32 40a8 8 0 1 1 4.06-14.89l4.52-4.52a2 2 0 0 1 2.83 2.83l-4.52 4.52A8 8 0 0 1 32 40zm0-12a4 4 0 1 0 3 1.36l-.19-.17-.16-.19A4 4 0 0 0 32 28z" id="dgCapa_4" data-name="Capa 4"/></symbol><symbol id="tools" viewBox="0 0 45 46" xmlns="http://www.w3.org/2000/svg"><style>.dhst0{fill:#4a4a4a}</style><title>Reparacion</title><g id="dhCertified-cars"><g transform="translate(-503 -1509)" id="dhDesktop-AD-detail---Full-icons"><g id="dhCard-Vehiculo-Certificado" transform="translate(94 193)"><g id="dhReparacion" transform="translate(343 1171)"><path id="dhPage-1" class="dhst0" d="M70.8 149.2l2.7 2.7-.6.6-.6.6-2.7-2.6 1.2-1.3zm.8 5.9c.2.2.5.3.7.3s.5-.1.7-.3l.7-.7 9.7 9.7c.2.2.5.3.7.3s.5-.1.7-.3c.4-.4.4-1 0-1.4l-9.8-9.8.6-.6c.2-.2.3-.4.3-.7s-.1-.5-.3-.7l-4-4c-.4-.4-1-.4-1.4 0l-2.6 2.6c-.4.4-.4 1 0 1.4l4 4.2zm38.7 29.2c.2.2.3.4.3.7s-.1.5-.3.7l-4.1 4.1c-.2.2-.4.3-.7.3s-.5-.1-.7-.3v-.1l-14-14c-.4-.4-.4-1 0-1.4.4-.4 1-.4 1.3 0l13.4 13.4 2.7-2.7-13.4-13.4c-.4-.4-.4-1 0-1.4.4-.4 1-.4 1.3 0l14.2 14.1zM74.7 189c-.5 0-.9-.1-1.4-.1l5.3-5.3c.2-.2.3-.4.3-.7s-.1-.5-.3-.7l-3.8-3.9c-.4-.4-1-.4-1.3 0l-5.3 5.4c-.1-.4-.2-.9-.2-1.4 0-3.8 3.1-6.8 6.8-6.8 1.1 0 2 .2 2.8.6.3.1.8.1 1.1-.2L96 158.5c.3-.3.4-.7.2-1.1-.5-1-.7-1.8-.7-2.8 0-3.8 3.1-6.8 6.8-6.8.5 0 .9 0 1.4.1l-5.2 5.2c-.4.4-.4 1 0 1.4l3.8 3.8c.2.2.4.3.7.3s.5-.1.7-.3l5.3-5.3c.1.5.2 1 .2 1.5 0 3.8-3 6.8-6.8 6.8-1 0-1.9-.2-2.8-.6-.4-.1-.8-.1-1.1.2l-17.4 17.4c-.3.3-.4.7-.2 1.1.4.9.6 1.8.6 2.8 0 3.8-3.1 6.8-6.8 6.8zm24.6-26.1c.9.3 1.9.6 3 .6 4.8-.1 8.7-4 8.7-8.8 0-1.3-.2-2.5-.8-3.7-.1-.3-.4-.5-.7-.6-.3 0-.7.1-.8.2l-5.7 5.8-2.5-2.5 5.7-5.6c.2-.2.3-.6.2-.9-.1-.3-.2-.6-.6-.7-1.1-.5-2.3-.8-3.6-.8-4.8-.1-8.7 3.9-8.7 8.7 0 1 .2 1.9.6 2.9L77.7 174c-.9-.3-1.9-.5-2.9-.5-4.8.1-8.8 3.9-8.8 8.8 0 1.3.2 2.5.8 3.7.1.3.4.5.7.5.3.1.7 0 .8-.2l5.7-5.8 2.5 2.5-5.7 5.7c-.2.2-.3.6-.2.8.1.3.2.6.6.7 1.1.5 2.3.8 3.6.8 4.8 0 8.7-3.9 8.7-8.7 0-1-.2-2-.5-3l16.3-16.4z"/></g></g></g></g></symbol><symbol viewBox="0 0 64 64" id="traction" xmlns="http://www.w3.org/2000/svg"><title>traction</title><g fill-rule="evenodd"><path d="M5 9.999A5.995 5.995 0 0 1 10.992 4h16.016A5.99 5.99 0 0 1 33 9.999V54a5.995 5.995 0 0 1-5.992 6H10.992A5.99 5.99 0 0 1 5 54.001V10zm-4 0V54c0 5.528 4.471 10 9.992 10h16.016C32.528 64 37 59.523 37 54.001V10c0-5.528-4.471-10-9.992-10H10.992C5.472 0 1 4.477 1 9.999z"/><path d="M57 36.004V36v.004zM57 28H37v8h20v-8zm-24-4h24.003A3.996 3.996 0 0 1 61 27.996v8.008A4 4 0 0 1 57.003 40H33V24zM11 0v64h4V0zm12 0v64h4V0z"/><path d="M11.464 40.72l-10 12a2 2 0 0 0 3.072 2.56l10-12a2 2 0 0 0-3.072-2.56zm12 2.56l10 12a2 2 0 0 0 3.072-2.56l-10-12a2 2 0 0 0-3.072 2.56zm0-16l10 12a2 2 0 0 0 3.072-2.56l-10-12a2 2 0 0 0-3.072 2.56zm0-16l10 12a2 2 0 0 0 3.072-2.56l-10-12a2 2 0 0 0-3.072 2.56zm-12 13.44l-10 12a2 2 0 0 0 3.072 2.56l10-12a2 2 0 0 0-3.072-2.56zm0-16l-10 12a2 2 0 0 0 3.072 2.56l10-12a2 2 0 0 0-3.072-2.56zM49 24v16h4V24z"/></g></symbol><symbol viewBox="0 0 64 64" id="transmission" xmlns="http://www.w3.org/2000/svg"><defs><style>.djcls-1{fill:#959290}</style></defs><title>transmission</title><path class="djcls-1" d="M16 64A16 16 0 0 1 1.06 42.27l9.19-31.8a13 13 0 0 1 21-7.55L59.09 19a9 9 0 0 1 1.14 15.34L26.57 60A15.94 15.94 0 0 1 16 64zM4.79 43.71a12 12 0 1 0 0-.12zM16 32a16 16 0 0 1 15.71 19.05l20.37-15.54A9 9 0 0 1 51 18.94l-15.32-8.83a13 13 0 0 1-23.89 9.45l-4.3 14.9A15.91 15.91 0 0 1 16 32zm39-10a5 5 0 1 0 2.83 9.12L58 31l.12-.09a5 5 0 0 0-.3-8.09l-.58-.33A5 5 0 0 0 55 22zM14.14 11.4A9 9 0 1 0 28.9 6.21l-3-1.74a9 9 0 0 0-11.25 5.17zM16 56a8 8 0 1 1 8-8 8 8 0 0 1-8 8zm0-12a4 4 0 1 0 4 4 4 4 0 0 0-4-4zm7-26a5 5 0 1 1 5-5 5 5 0 0 1-5 5zm0-6a1 1 0 1 0 1 1 1 1 0 0 0-1-1z" id="djCapa_3" data-name="Capa 3"/></symbol><symbol viewBox="0 0 64 64" id="trunk" xmlns="http://www.w3.org/2000/svg"><defs><style>.dkcls-1{fill:#959290}</style></defs><title>trunk</title><path class="dkcls-1" d="M62 62H2a2 2 0 0 1 0-4h60a2 2 0 0 1 0 4zm-4-8H6a6 6 0 0 1-6-6V24a8 8 0 0 1 8-8h10v-4A10 10 0 0 1 28 2h8a10 10 0 0 1 10 10v4h12a6 6 0 0 1 6 6v26a6 6 0 0 1-6 6zm-2-4h2a2 2 0 0 0 2-2V22a2 2 0 0 0-2-2h-2zm-8 0h4V20h-4zm-28 0h24V20H20zm-8 0h4V20h-4zM8 20a4 4 0 0 0-4 4v24a2 2 0 0 0 2 2h2zm31-4h3v-4a6 6 0 0 0-6-6h-8a6 6 0 0 0-6 6v4h3v-3a4 4 0 0 1 4-4h6a4 4 0 0 1 4 4zm-10 0h6v-3h-6z" id="dkCapa_3" data-name="Capa 3"/></symbol><symbol id="twitter" viewBox="0 0 64 64" xmlns="http://www.w3.org/2000/svg"><defs><style>.dlcls-1{fill:#959290}</style></defs><title>twitter</title><path class="dlcls-1" d="M44.3 8a13.36 13.36 0 0 1 9.59 4 27 27 0 0 0 8.34-3.06 12.75 12.75 0 0 1-5.76 7 27.25 27.25 0 0 0 7.54-2 26.13 26.13 0 0 1-6.55 6.53v1.64C57.49 38.76 44.28 58 20.13 58A38.27 38.27 0 0 1 0 52.32a26.13 26.13 0 0 0 3.13.17 27 27 0 0 0 16.3-5.4 13.08 13.08 0 0 1-12.27-8.76 13.52 13.52 0 0 0 2.48.22 13.1 13.1 0 0 0 3.45-.45A12.77 12.77 0 0 1 2.55 25.72v-.16a13.47 13.47 0 0 0 6 1.57 12.49 12.49 0 0 1-5.89-10.5 12.21 12.21 0 0 1 1.78-6.35 37.83 37.83 0 0 0 27.07 13.19 12.15 12.15 0 0 1-.34-2.88A12.84 12.84 0 0 1 44.3 8zM64 13.91z"/></symbol><symbol viewBox="0 0 64 64" id="user" xmlns="http://www.w3.org/2000/svg"><defs><style>.dmcls-1{fill:#959290}</style></defs><title>user</title><path class="dmcls-1" d="M58 64H6a6 6 0 0 1-6-6 8.49 8.49 0 0 1 4.61-7.59l17.33-8.92a21.58 21.58 0 0 1-8.15-16.94V14.47a10 10 0 0 1 3.16-7.29l1.84-1.73a19 19 0 0 1 26 0l1.84 1.73a10 10 0 0 1 3.16 7.29v10.07a21.57 21.57 0 0 1-8.14 16.93h.13l17.57 8.88A8.47 8.47 0 0 1 64 58a6 6 0 0 1-6 6zM23.59 45.12L6.44 54A4.49 4.49 0 0 0 4 58a2 2 0 0 0 2 2h52a2 2 0 0 0 2-2 4.48 4.48 0 0 0-2.47-4L40 45.12a4 4 0 0 1-.86-6.77 17.59 17.59 0 0 0 6.63-13.8V14.47a6 6 0 0 0-1.9-4.38L42 8.36a15 15 0 0 0-20.52 0l-1.84 1.73a6 6 0 0 0-1.9 4.38v10.07a17.59 17.59 0 0 0 6.63 13.8 4 4 0 0 1-.82 6.78z" id="dmCapa_4" data-name="Capa 4"/></symbol><symbol id="warrant" viewBox="0 0 48 42" xmlns="http://www.w3.org/2000/svg"><style>.dnst0{fill:#4a4a4a}</style><title>Warrant</title><path class="dnst0" d="M40.9 1H7.1C3.2 1 0 4.2 0 8.1v20c0 3.9 3.2 7.1 7.1 7.1H27V41c0 .4.2.7.5.9.3.2.7.1 1-.1l4.1-2.8 4.2 2.9c.2.1.4.2.6.2.2 0 .3 0 .5-.1.3-.2.5-.5.5-.9v-5.9h2.5c3.9 0 7.1-3.2 7.1-7.1v-20C48 4.2 44.8 1 40.9 1zm-8.8 28.1c-3.9 0-7.1-3.2-7.1-7.1 0-3.9 3.2-7.1 7.1-7.1 3.9 0 7.1 3.2 7.1 7.1-.1 3.9-3.3 7.1-7.1 7.1zm1.1 7.8c-.3-.2-.8-.2-1.1 0L29 39.1v-8.5c1 .3 2 .5 3.1.5 1.6 0 3.1-.4 4.3-1.1v9.1l-3.2-2.2zM46 28.1c0 2.8-2.3 5.1-5.1 5.1h-2.5V29c0-.1 0-.3-.1-.4 1.7-1.7 2.8-4 2.8-6.5 0-5-4.1-9.1-9.1-9.1s-9.1 4.1-9.1 9.1c0 3.1 1.6 5.9 4 7.5v3.5H7.1C4.3 33.1 2 30.8 2 28V8c0-2.7 2.3-5 5.1-5H41c2.7 0 5 2.3 5 5.1v20z"/><path class="dnst0" d="M38.3 8H10c-.6 0-1 .4-1 1s.4 1 1 1h28.3c.6 0 1-.4 1-1s-.5-1-1-1zm-19.7 8H10c-.6 0-1 .4-1 1s.4 1 1 1h8.6c.6 0 1-.4 1-1s-.4-1-1-1zm0 9H10c-.6 0-1 .4-1 1s.4 1 1 1h8.6c.6 0 1-.4 1-1s-.4-1-1-1z"/></symbol><symbol id="warranty" viewBox="0 0 36 44" xmlns="http://www.w3.org/2000/svg"><style>.dost0{fill:#27ae60}</style><title>Page 1</title><g id="doCertified-cars"><g transform="translate(-425 -819)" id="doDesktop-AD-detail---Full-icons"><g id="doCard-Title" transform="translate(97 689)"><g id="doGarantia-x-meses" transform="translate(280 130)"><g id="doPage-1" transform="translate(48)"><path id="doFill-1" class="dost0" d="M28.6 22.3c0 5.8-4.6 10.5-10.4 10.5S7.8 28.1 7.8 22.3s4.6-10.5 10.4-10.5 10.4 4.7 10.4 10.5M6 22.3c0 6.8 5.5 12.3 12.2 12.3s12.2-5.5 12.2-12.3S25 10 18.2 10 6 15.5 6 22.3"/><path id="doCombined-Shape" class="dost0" d="M17.3 24.4l-3.8-3.1c-.4-.3-1-.3-1.3.1-.3.4-.3.9.1 1.2l4.5 3.8c.4.3 1 .3 1.3-.1.1-.1.2-.3.2-.4.1 0 .1-.1.2-.1l6.1-6.3c.3-.4.3-.9-.1-1.2-.4-.3-1-.3-1.3.1l-5.9 6z"/><path id="doFill-3" class="dost0" d="M34.2 26c0 8.1-13.7 15-16.1 16.1C15.6 40.9 1.9 34 1.9 26V11C7.6 9 13 6 18 2.2 23.3 6.1 28.6 9 34.2 11v15zm1.3-16.5c-5.8-2-11.4-5-16.9-9.3-.4-.3-.8-.3-1.1 0C12.3 4.2 6.6 7.4.6 9.5c-.3.1-.6.4-.6.8v15.6c0 10 16.9 17.7 17.6 18.1.2.1.4.1.5.1.1 0 .3 0 .4-.1.6-.4 17.5-8.1 17.5-18.1V10.3c0-.4-.2-.7-.5-.8z"/></g></g></g></g></g></symbol><symbol id="warranty-fill" viewBox="0 0 20 23" xmlns="http://www.w3.org/2000/svg"><style>.dpst0{fill:#27ae60}</style><title>Garantia</title><path class="dpst0" d="M10 0C6.8 2.3 3.5 4 0 5.2 0 17.4 5.3 20.1 10 23c4.7-2.9 10-5.6 10-17.8C16.5 4 13.2 2.3 10 0zm.1 15.7c-.1.1-.3.2-.5.2s-.3-.1-.5-.2l-3.8-3c-.3-.3-.4-.7-.1-1.1.3-.3.7-.4 1.1-.1l3.3 2.6 5-5c.3-.3.8-.3 1.1 0 .3.3.3.8 0 1.1l-5.6 5.5z"/></symbol><symbol id="youtube" viewBox="0 0 64 64" xmlns="http://www.w3.org/2000/svg"><defs><style>.dqcls-1{fill:#959290}</style></defs><title>youtube</title><path class="dqcls-1" d="M41 9.54v11.87a8.44 8.44 0 0 0 0 1.13c.06.48.29.71.68.71q.88 0 1.85-1.39V9.54h2.95v16.15h-2.92v-1.78q-1.72 2-3.34 2a1.8 1.8 0 0 1-1.91-1.2 8.29 8.29 0 0 1-.26-2.43V9.54zM27.92 24.26a6.46 6.46 0 0 1-.92-3.82v-5.66a6.31 6.31 0 0 1 .92-3.78 4 4 0 0 1 3.4-1.65A4 4 0 0 1 34.75 11a6.31 6.31 0 0 1 .91 3.79v5.66a6.38 6.38 0 0 1-.91 3.82 4 4 0 0 1-3.43 1.65 4 4 0 0 1-3.4-1.66zm2-3.27q0 2.27 1.39 2.27t1.4-2.26v-6.8q0-2.23-1.39-2.23t-1.39 2.23zm-6.87 4.69v-8.77L27 4h-3.3l-2.2 8.51L19.17 4h-3.43q.91 2.72 2.11 6.05a55 55 0 0 1 2 6.86v8.77h3.24zM55.16 34A54.91 54.91 0 0 1 56 45.3a56.06 56.06 0 0 1-.84 11.33 6.16 6.16 0 0 1-1.88 3.2A5.67 5.67 0 0 1 50 61.32 173.53 173.53 0 0 1 32 62a173.53 173.53 0 0 1-18-.68 5.74 5.74 0 0 1-3.32-1.49 5.92 5.92 0 0 1-1.86-3.2A54.91 54.91 0 0 1 8 45.3 56 56 0 0 1 8.84 34a6.15 6.15 0 0 1 1.88-3.21 5.88 5.88 0 0 1 3.34-1.52Q20 28.6 32 28.6t18 .65A6.08 6.08 0 0 1 55.16 34zM21.7 37.24v-3H11.6v3H15v18.42h3.24V37.24h3.46zm8.74 18.42v-16h-2.88V51.9q-1 1.36-1.85 1.36-.58 0-.68-.68a9 9 0 0 1 0-1.13V39.67h-2.91v12.65a8 8 0 0 0 .26 2.36 1.75 1.75 0 0 0 1.88 1.2q1.55 0 3.3-2v1.75h2.88zm11-11.17a11.5 11.5 0 0 0-.29-3.21 2.25 2.25 0 0 0-2.3-1.81 3.9 3.9 0 0 0-3 1.75v-7H33v21.44h2.88V54.1a4 4 0 0 0 3 1.78 2.24 2.24 0 0 0 2.3-1.78 11.88 11.88 0 0 0 .29-3.24zm10.96 3.72v-3.33a6.43 6.43 0 0 0-.87-3.76 4.43 4.43 0 0 0-6.9 0 6.25 6.25 0 0 0-.91 3.76v5.6a6.07 6.07 0 0 0 .94 3.75 4.16 4.16 0 0 0 3.5 1.65 4 4 0 0 0 4.18-3.46 14.19 14.19 0 0 0 .07-1.88v-.42h-2.95a16.1 16.1 0 0 1-.07 2 1.24 1.24 0 0 1-1.3 1.16q-1.49 0-1.49-2.23v-2.84h5.8zm-4.34-6.12q-1.46 0-1.46 2.2v1.49h2.92V44.3q0-2.2-1.46-2.21zm-10.75 0a2.08 2.08 0 0 0-1.46.71v9.74a2.07 2.07 0 0 0 1.46.71q1.26 0 1.26-2.17v-6.82q0-2.17-1.26-2.17z"/></symbol></svg>